<svg xmlns="http://www.w3.org/2000/svg" width="476" height="320" viewBox="1346 -158 476 320"><path fill="#FFF" d="M1367-138h188v298h-188z"/><path fill="#00E676" d="M1367-138h188V4h-188z"/><path fill="#FFF" d="M1411-154.16v60h-60v-60h60m2-2h-64v64h64v-64zM1695-137h2V4h-2zm-36 0h2V4h-2zm-35 0h2V4h-2zm-35 0h2V4h-2z"/><path fill="#212121" d="M1518-138h2V4h-2z"/><path fill="#FFF" d="M1730-137h2V4h-2z"/><path fill="#FFF" d="M1554-33h177v2h-177zm0-35h177v2h-177zm-35-35h212v2h-212zm36-35h177v2h-177zm-1 140h177v2h-177z"/><path fill="#212121" d="M1518-33h37v2h-37zm0-35h37v2h-37zm0-35h37v2h-37zm0 105h37v2h-37z"/><path fill="#FFF" d="M1725 85.76c7.72 0 14 6.28 14 14v20c0 7.72-6.28 14-14 14h-124c-7.72 0-14-6.28-14-14v-20c0-7.72 6.28-14 14-14h124m0-2h-124c-8.84 0-16 7.16-16 16v20c0 8.84 7.16 16 16 16h124c8.84 0 16-7.16 16-16v-20c0-8.84-7.16-16-16-16z"/><path d="M1388.29-103.46l-12.7-12.7 12.7-12.71 1.42 1.41-11.3 11.3 11.3 11.29z"/><path d="M1379-117.16h22v2h-22z"/><path fill="#00E676" d="M1767-138.16h52v52h-52z"/><path fill="#212121" d="M1784.45-97.72l-9.66-9.66 1.42-1.41 8.24 8.24 25.34-25.34 1.42 1.41z"/><path fill="#B2FF59" d="M1767-68.16h52v52h-52z"/><path fill="#212121" d="M1784.45-27.72l-9.66-9.66 1.42-1.41 8.24 8.24 25.34-25.34 1.42 1.41z"/><path fill="#FFF" d="M1817 3.84v48h-48v-48h48m2-2h-52v52h52v-52zM1743 152h76v2h-76z"/><path fill="none" d="M1621.27 33.84h-20.64c-5.31 0-9.63 4.32-9.63 9.63v.73c0 5.31 4.32 9.63 9.63 9.63h20.64a16.905 16.905 0 0 1 0-19.99z"/><path fill="#B2FF59" d="M1600.63 53.84c-5.31 0-9.63-4.32-9.63-9.63v-.73c0-5.31 4.32-9.63 9.63-9.63h20.64c.52-.71 1.07-1.38 1.69-2h-22.33c-6.43 0-11.63 5.21-11.63 11.63v.73c0 6.43 5.21 11.63 11.63 11.63h22.33a17.02 17.02 0 0 1-1.69-2h-20.64z"/><path fill="none" d="M1623.85 53.84h9.51c5.31 0 9.63-4.32 9.63-9.63v-.73c0-5.31-4.5-9.63-9.82-9.63h-9.32c-2.39 2.66-3.85 6.16-3.85 10s1.47 7.33 3.85 9.99z"/><path fill="none" d="M1645 43.47v.73c0 6.43-5.21 11.63-11.63 11.63h-7.33c2.5 1.88 5.6 3 8.96 3 8.27 0 15-6.73 15-15s-6.73-15-15-15c-3.36 0-6.46 1.12-8.96 3h7.33c6.42.01 11.63 5.22 11.63 11.64z"/><path fill="#00E676" d="M1620 43.84c0-3.84 1.47-7.34 3.85-10h-1.95c-2.13 2.78-3.41 6.24-3.41 10s1.28 7.22 3.41 10h1.95c-2.38-2.66-3.85-6.16-3.85-10z"/><path fill="#00E676" d="M1635 28.84c8.27 0 15 6.73 15 15s-6.73 15-15 15c-3.36 0-6.46-1.12-8.96-3h-2.33c2.95 2.78 6.92 4.5 11.29 4.5 9.1 0 16.5-7.4 16.5-16.5s-7.4-16.5-16.5-16.5c-4.37 0-8.33 1.72-11.29 4.5h2.33c2.5-1.88 5.6-3 8.96-3z"/><path fill="#00E676" d="M1623.85 53.84h-1.95c.55.72 1.15 1.38 1.8 2h2.33c-.79-.6-1.52-1.27-2.18-2zm-1.94-20h1.95c.66-.74 1.39-1.41 2.19-2h-2.33c-.66.61-1.27 1.28-1.81 2z"/><path fill="#00E676" d="M1635 26.84c-4.7 0-8.96 1.91-12.04 5h.75c2.95-2.78 6.92-4.5 11.29-4.5 9.1 0 16.5 7.4 16.5 16.5s-7.4 16.5-16.5 16.5c-4.37 0-8.33-1.72-11.29-4.5h-.75c3.08 3.09 7.34 5 12.04 5 9.39 0 17-7.61 17-17s-7.61-17-17-17zm-13.09 7h-.63a16.905 16.905 0 0 0-3.27 10c0 3.74 1.22 7.19 3.27 10h.63c-2.13-2.78-3.41-6.24-3.41-10s1.28-7.22 3.41-10z"/><path fill="#00E676" d="M1621.91 33.84c.55-.72 1.15-1.38 1.8-2h-.75c-.62.62-1.17 1.29-1.69 2h.64zm0 20h-.63c.52.71 1.07 1.38 1.69 2h.75c-.66-.62-1.27-1.29-1.81-2zm84.09-31c11.58 0 21 9.42 21 21s-9.42 21-21 21-21-9.42-21-21 9.42-21 21-21m0-2c-12.7 0-23 10.3-23 23s10.3 23 23 23 23-10.3 23-23-10.3-23-23-23z"/><path fill="#FFF" d="M1697.085 33.51l19.219 19.22-1.414 1.414-19.22-19.219z"/><path fill="#FFF" d="M1714.89 33.51l1.414 1.415-19.22 19.22-1.413-1.415z"/><path fill="#00E676" d="M1792.98 136.58l-10.49-10.55c-8.65-8.82-12.5-15.78-12.49-22.58 0-12.91 10.33-23.43 23.01-23.44h.01c6.14 0 11.92 2.44 16.26 6.86 4.34 4.42 6.72 10.3 6.72 16.56 0 6.75-3.89 13.72-12.6 22.6l-10.42 10.55zm.03-54.58c-11.58.01-21.01 9.63-21.01 21.44-.01 6.24 3.66 12.77 11.91 21.18l9.06 9.11 9-9.11c8.31-8.48 12.02-15.02 12.03-21.2 0-5.73-2.18-11.11-6.15-15.16-3.96-4.04-9.23-6.26-14.84-6.26.01 0 0 0 0 0z"/><path fill="#B2FF59" d="M1413-138.16h-2v44h-44v2h46zM1585 153h209"/><path fill="#00E676" d="M1585 152h209v2h-209z"/></svg>