<svg xmlns="http://www.w3.org/2000/svg" xmlns:xlink="http://www.w3.org/1999/xlink" width="562" height="364" viewBox="-223.6 -171.34 562 364"><path fill="#FFF" d="M-66.83 30.08v154.67H-221.5V30.08h154.67m2-2H-223.5v158.67h158.67V28.08z"/><path fill="#B2FF59" d="M-106.5 69.75v75.33h-75.33V69.75h75.33m2-2h-79.33v79.33h79.33V67.75z"/><defs><path id="a" d="M-153.79 126.87l-17.54-17.54 1.42-1.42 16.12 16.13 35.37-35.37 1.42 1.42z"/></defs><use xlink:href="#a" overflow="visible" fill="#FFF"/><path fill="#FFF" d="M319.5-168.25h2v226h-2z"/><path fill="#FFF" d="M320.5 59.43l-17.8-24.09 1.6-1.18 16.2 21.91 16.2-21.91 1.6 1.18z"/><path fill="#B2FF59" d="M174.44 186.36c-8.3 0-16.09-3.29-21.95-9.27-5.86-5.97-9.08-13.92-9.08-22.37.01-9.12 5.29-18.57 17.12-30.63l13.98-14.16 14.07 14.15c11.74 11.97 16.97 21.41 16.96 30.6 0 17.44-13.95 31.65-31.08 31.67-.01.01-.01.01-.02.01zm.07-73.58l-12.56 12.72c-11.43 11.66-16.54 20.67-16.54 29.23 0 7.92 3.02 15.37 8.51 20.97 5.48 5.59 12.77 8.67 20.53 8.67h.01c16.03-.02 29.07-13.33 29.08-29.67.01-8.63-5.04-17.63-16.38-29.19l-12.65-12.73z"/><path fill="#FFF" d="M134.44 186.36c-8.3 0-16.09-3.29-21.95-9.27-5.86-5.97-9.08-13.92-9.08-22.37.01-9.12 5.29-18.57 17.12-30.63l13.98-14.16 14.07 14.15c11.74 11.97 16.97 21.41 16.96 30.6 0 17.44-13.95 31.65-31.08 31.67-.01.01-.01.01-.02.01zm.07-73.58l-12.56 12.72c-11.43 11.66-16.54 20.67-16.54 29.23 0 7.92 3.02 15.37 8.51 20.97 5.48 5.59 12.77 8.67 20.53 8.67h.01c16.03-.02 29.07-13.33 29.08-29.67.01-8.63-5.04-17.63-16.38-29.19l-12.65-12.73z"/><path fill="#00E676" d="M309.38 141.63c3.31 0 6 2.69 6 6s-2.69 6-6 6-6-2.69-6-6 2.69-6 6-6m0-2c-4.42 0-8 3.58-8 8s3.58 8 8 8 8-3.58 8-8-3.58-8-8-8zm-24.7 2c3.31 0 6 2.69 6 6s-2.69 6-6 6-6-2.69-6-6 2.69-6 6-6m0-2c-4.42 0-8 3.58-8 8s3.58 8 8 8 8-3.58 8-8-3.58-8-8-8zm-25.3 2c3.31 0 6 2.69 6 6s-2.69 6-6 6-6-2.69-6-6 2.69-6 6-6m0-2c-4.42 0-8 3.58-8 8s3.58 8 8 8 8-3.58 8-8-3.58-8-8-8z"/><path fill="#00E676" d="M329.44 192.25h-90v-90h90v90zm-88-2h86v-86h-86v86z"/><path fill="#B2FF59" d="M26.5 110.99c10.15 0 19.69 3.95 26.87 11.13 7.18 7.18 11.13 16.72 11.13 26.87s-3.95 19.69-11.13 26.87c-7.18 7.18-16.72 11.13-26.87 11.13S6.81 183.04-.37 175.86c-7.18-7.18-11.13-16.72-11.13-26.87s3.95-19.69 11.13-26.87c7.18-7.18 16.72-11.13 26.87-11.13m0-2c-10.24 0-20.47 3.91-28.28 11.72-15.62 15.62-15.62 40.95 0 56.57C6.03 185.09 16.27 189 26.5 189s20.47-3.91 28.28-11.72c15.62-15.62 15.62-40.95 0-56.57-7.81-7.82-18.04-11.72-28.28-11.72z"/><path fill="#FFF" d="M25.5 131.36h2V168h-2z"/><path fill="#FFF" d="M8.18 148.68h36.64v2H8.18z"/><path fill="none" d="M-222-169h160V-9h-160z"/><path fill="#FFF" d="M-222-62.33h53.33l53.34-53.34V-169H-222z"/><circle fill="#00E676" cx="-115.33" cy="-62.33" r="53.33"/><path fill="#B2FF59" d="M-115.33-115.67c-29.46 0-53.33 23.88-53.33 53.33h53.33v-53.33z"/><path fill="#FFF" d="M336.7-145.66l-16.2-21.91-16.2 21.91-1.6-1.18 17.8-24.09 17.8 24.09z"/><path fill="#B2FF59" d="M152.5-168.25v-2h-173v173h2v-57h55v55h-55v2h171v-57h1v-2h-1v-112zm-59 0v55h-55v-55h55zm0 57v55h-55v-55h55zm-57-57v55h-55v-55h55zm-55 112v-55h55v55h-55zm57 2h55v55h-55v-55zm112 55h-55v-55h55v55zm-55-57v-55h55v55h-55zm55-57h-55v-55h55v55z"/><path fill="#FFF" d="M-20.5 3v56.75h287v-230H153v2h54.5v55H152v2h55.5v55H153v2h54.5v55h-55v2h55v55h-55V3h-2v54.75h-55V3h-2v54.75h-55V3h-2v54.75h-55V3m283 54.75h-55v-55h55v55zm0-57h-55v-55h55v55zm0-57h-55v-55h55v55zm-55-57v-55h55v55h-55z"/></svg>