<svg xmlns="http://www.w3.org/2000/svg" xmlns:xlink="http://www.w3.org/1999/xlink" width="494" height="314" viewBox="585 -140 494 314"><path fill="#B2FF59" d="M1053-87.96c13.23 0 24 10.77 24 24s-10.77 24-24 24-24-10.77-24-24 10.77-24 24-24m0-2c-14.36 0-26 11.64-26 26s11.64 26 26 26 26-11.64 26-26-11.64-26-26-26zm-1-48.04h2v48h-2z"/><path fill="#B2FF59" d="M1052-38h2v198h-2z"/><path fill="#FFF" d="M824-63.06h188v223H824z"/><path fill="#B2FF59" d="M824-138.06h188v226H824z"/><path fill="#00E676" d="M824-138.06h188v75H824z"/><circle fill="#00E676" cx="963.37" cy="87.94" r="30"/><path fill="#FFF" d="M679-136.06v92h-92v-92h92m2-2h-96v96h96v-96z"/><path fill="#B2FF59" d="M655-112.06v44h-44v-44h44m2-2h-48v48h48v-48z"/><path fill="#FFF" d="M638.29-77.35l-12.7-12.71 12.7-12.7 1.42 1.41-11.3 11.29 11.3 11.3zM704 86h180v2H704zm0-30h180v2H704zm0-30h180v2H704zm0-30h180v2H704zm0-30h180v2H704zm0-30h180v2H704zm0 180h180v2H704z"/><path fill="#FFF" d="M734-64h2v180h-2zm29 0h2v180h-2zm30 0h2v180h-2zm-89 0h2v180h-2z"/><path fill="#212121" d="M824 86h60v2h-60zm0-30h60v2h-60zm0-30h60v2h-60zm0-30h60v2h-60zm0-30h60v2h-60zm0-30h60v2h-60zm0 180h60v2h-60z"/><path fill="#212121" d="M882-63h2v180h-2zm-30-1h2v181h-2z"/><path fill="#212121" d="M882-64h2v181h-2z"/><path fill="#00E676" d="M784.3-94.34c-4.99 0-9.69-1.95-13.23-5.49-3.48-3.48-5.47-8.31-5.47-13.25 0-4.9 1.99-9.71 5.47-13.18l13.23-13.21 13.23 13.21c3.48 3.48 5.47 8.28 5.47 13.18 0 4.94-1.99 9.77-5.47 13.25-3.54 3.54-8.24 5.49-13.23 5.49zm0-42.3l-11.81 11.79c-3.1 3.1-4.88 7.39-4.88 11.77 0 4.42 1.78 8.73 4.88 11.84 3.16 3.16 7.36 4.91 11.81 4.91 4.46 0 8.65-1.74 11.81-4.91 3.1-3.1 4.88-7.42 4.88-11.84 0-4.38-1.78-8.67-4.88-11.77l-11.81-11.79z"/><path fill="#B2FF59" d="M754-94.34c-4.99 0-9.69-1.95-13.23-5.49-3.48-3.48-5.47-8.31-5.47-13.25 0-4.9 1.99-9.71 5.47-13.18L754-139.47l13.23 13.21c3.48 3.48 5.47 8.28 5.47 13.18 0 4.94-1.99 9.77-5.47 13.25-3.54 3.54-8.24 5.49-13.23 5.49zm0-42.3l-11.81 11.79c-3.1 3.1-4.88 7.39-4.88 11.77 0 4.42 1.78 8.73 4.88 11.84 3.16 3.16 7.36 4.91 11.81 4.91s8.65-1.74 11.81-4.91c3.1-3.1 4.88-7.42 4.88-11.84 0-4.38-1.78-8.67-4.88-11.77L754-136.64z"/><path fill="#FFF" d="M723.7-94.34c-4.99 0-9.69-1.95-13.23-5.49-3.48-3.48-5.47-8.31-5.47-13.25 0-4.9 1.99-9.71 5.47-13.18l13.23-13.21 13.23 13.21c3.48 3.48 5.47 8.28 5.47 13.18 0 4.94-1.99 9.77-5.47 13.25-3.55 3.54-8.24 5.49-13.23 5.49zm0-42.3l-11.81 11.79c-3.1 3.1-4.88 7.39-4.88 11.77 0 4.42 1.78 8.73 4.88 11.84 3.16 3.16 7.36 4.91 11.81 4.91s8.65-1.74 11.81-4.91c3.1-3.1 4.88-7.42 4.88-11.84 0-4.38-1.78-8.67-4.88-11.77l-11.81-11.79z"/><path fill="#B2FF59" d="M645 82.94c8.82 0 16 7.18 16 16s-7.18 16-16 16h-24c-8.82 0-16-7.18-16-16s7.18-16 16-16h24m0-2h-24c-9.94 0-18 8.06-18 18s8.06 18 18 18h24c9.94 0 18-8.06 18-18s-8.06-18-18-18z"/><g opacity=".04"><defs><path id="a" d="M646 82.44c9.1 0 16.5 7.4 16.5 16.5s-7.4 16.5-16.5 16.5-16.5-7.4-16.5-16.5 7.4-16.5 16.5-16.5m0-.5c-9.39 0-17 7.61-17 17s7.61 17 17 17 17-7.61 17-17c0-9.38-7.61-17-17-17z"/></defs><clipPath id="b"><use xlink:href="#a" overflow="visible"/></clipPath><path clip-path="url(#b)" fill="#231F20" d="M629 115.94h16.96H629zm17-34h17v34h-34v-34zm17 0h-17 17z"/><path clip-path="url(#b)" fill="#231F20" d="M629.5 82.44h33v33h-33z"/></g><path fill="#B2FF59" d="M646 83.94c8.27 0 15 6.73 15 15s-6.73 15-15 15-15-6.73-15-15 6.73-15 15-15m0-2c-9.39 0-17 7.61-17 17s7.61 17 17 17 17-7.61 17-17c0-9.38-7.61-17-17-17z"/><circle fill="#00E676" cx="633" cy="19.94" r="31"/><path fill="#FFF" d="M632 1.63h2v36.64h-2z"/><path fill="#FFF" d="M614.68 18.94h36.64v2h-36.64z"/><g fill="#00E676"><path d="M669.05 158H585v1h84c0-.34.03-.67.05-1zM585 159v1h84.05c-.02-.33-.05-.66-.05-1h-84zm111.95 1H795v-1h-98c0 .34-.03.67-.05 1zm0-2c.02.33.05.66.05 1h98v-1h-98.05zM683 172c-6.84 0-12.44-5.29-12.95-12h-1c.52 7.25 6.57 13 13.95 13s13.43-5.75 13.95-13h-1c-.51 6.71-6.11 12-12.95 12zm0-26c6.84 0 12.44 5.29 12.95 12h1c-.52-7.25-6.57-13-13.95-13s-13.43 5.75-13.95 13h1c.51-6.71 6.11-12 12.95-12z"/><path d="M670 159c0-.34.03-.67.05-1h-1c-.02.33-.05.66-.05 1h1zm26 0c0 .34-.03.67-.05 1h1c.02-.33.05-.66.05-1h-1zm0 0h1c0-.34-.03-.67-.05-1h-1c.02.33.05.66.05 1zm-26 0h-1c0 .34.03.67.05 1h1c-.02-.33-.05-.66-.05-1zm13-12c6.28 0 11.44 4.85 11.95 11h1c-.51-6.71-6.11-12-12.95-12s-12.44 5.29-12.95 12h1c.51-6.15 5.67-11 11.95-11zm0 24c-6.28 0-11.44-4.85-11.95-11h-1c.51 6.71 6.11 12 12.95 12s12.44-5.29 12.95-12h-1c-.51 6.15-5.67 11-11.95 11z"/><path d="M694.95 160h1c.03-.33.05-.66.05-1h-1c0 .34-.02.67-.05 1zM671 159h-1c0 .34.03.67.05 1h1c-.03-.33-.05-.66-.05-1zm23.95-1c.03.33.05.66.05 1h1c0-.34-.03-.67-.05-1h-1zm-23.9 0h-1c-.03.33-.05.66-.05 1h1c0-.34.02-.67.05-1z"/></g></svg>