<svg xmlns="http://www.w3.org/2000/svg" width="640" height="640" viewBox="88 711 640 640"><path fill="#212121" d="M88 711h640v640H88z"/><path fill="none" stroke="#FFF" stroke-width="2" stroke-miterlimit="10" d="M380.62 1169.05l-246.62.07"/><path fill="#B2FF59" d="M652 928.54c15.44 0 28 12.56 28 28s-12.56 28-28 28-28-12.56-28-28 12.56-28 28-28m0-2c-16.57 0-30 13.43-30 30s13.43 30 30 30 30-13.43 30-30-13.43-30-30-30z"/><path fill="none" stroke="#B2FF59" stroke-width="2" stroke-miterlimit="10" d="M652 882v45M652 986v195"/><g fill="none" stroke-width="2" stroke-miterlimit="10"><circle stroke="#00E676" cx="191.5" cy="1077.05" r="48"/><path stroke="#FFF" d="M191.5 1105.41v-56.73M219.86 1077.05h-56.72"/></g><path fill="#FFF" d="M408.62 957.04h188v223h-188z"/><path fill="#B2FF59" d="M408.62 882.04h188v226h-188z"/><path fill="#00E676" d="M408.62 882.04h188v75h-188z"/><circle fill="#00E676" cx="548" cy="1108.04" r="30"/><path fill="#FFF" d="M237.5 900.05v92h-92v-92h92m2-2h-96v96h96v-96z"/><path fill="#B2FF59" d="M213.89 923.65v44.78h-44.78v-44.78h44.78m2-2h-48.78v48.78h48.78v-48.78z"/><path fill="none" stroke="#FFF" stroke-width="2" stroke-miterlimit="10" d="M197.2 932.74l-11.4 11.4 11.4 11.41"/><g fill="none" stroke-width="2" stroke-miterlimit="10"><path stroke="#FFF" d="M319.47 957.05v180M349.23 957.05v180M379 957.05v180M289.7 957.05v180"/><g stroke="#FFF"><path d="M289 1107.04h119.62M289 1077.04h119.62M289 1047.04h119.62M289 1017.04h119.62M289 987.04h119.62M289 957.04h119.62M289 1137.04h119.62"/></g><g stroke="#00E676"><path d="M408.62 1107.05h60M408.62 1077.05h60M408.62 1047.05h60M408.62 1017.05h60M408.62 987.05h60M408.62 957.05h60M408.62 1137.05h60"/></g></g><path fill="none" stroke="#00E676" stroke-width="2" stroke-miterlimit="10" d="M380.62 1169.05l-191.62.07M384.04 907.21l-12.19-12.17-12.19 12.17a17.274 17.274 0 0 0-5.04 12.15c0 4.31 1.68 8.85 5.04 12.21a17.215 17.215 0 0 0 24.38 0c3.36-3.36 5.04-7.9 5.04-12.21 0-4.31-1.68-8.79-5.04-12.15z"/><path fill="none" stroke="#B2FF59" stroke-width="2" stroke-miterlimit="10" d="M354.54 907.21l-12.19-12.17-12.19 12.17a17.274 17.274 0 0 0-5.04 12.15c0 4.31 1.68 8.85 5.04 12.21a17.215 17.215 0 0 0 24.38 0c3.36-3.36 5.04-7.9 5.04-12.21 0-4.31-1.68-8.79-5.04-12.15z"/><path fill="none" stroke="#FFF" stroke-width="2" stroke-miterlimit="10" d="M325.04 907.76l-12.19-12.17-12.19 12.17a17.274 17.274 0 0 0-5.04 12.15c0 4.31 1.68 8.85 5.04 12.21a17.215 17.215 0 0 0 24.38 0c3.36-3.36 5.04-7.9 5.04-12.21 0-4.31-1.68-8.79-5.04-12.15z"/><path fill="none" stroke="#00E676" stroke-width="2" stroke-miterlimit="10" d="M438 957.05v150M468.3 957.05v180M409.62 957.05v180M438 1137.05v-30"/></svg>