<svg xmlns="http://www.w3.org/2000/svg" width="492" height="348" viewBox="2070 -139 492 348"><path fill="#B2FF59" d="M2109.75-137.77h415v298h-415z"/><path fill="#00E676" d="M2524.75-39.77h-415v-97.82l415-.18z"/><path fill="#FFF" d="M2146.75-39.77h343v200h-343zm-37-11.94c-5.81 0-11.28-2.27-15.4-6.39-4.05-4.05-6.37-9.67-6.37-15.43 0-5.71 2.32-11.3 6.37-15.35l15.4-15.37 15.4 15.37c4.05 4.05 6.37 9.64 6.37 15.35 0 5.76-2.32 11.38-6.37 15.43-4.12 4.12-9.59 6.39-15.4 6.39zm0-49.71l-13.99 13.96c-3.67 3.67-5.78 8.75-5.78 13.93 0 5.23 2.11 10.34 5.78 14.01 3.75 3.75 8.71 5.81 13.99 5.81s10.24-2.06 13.99-5.81c3.67-3.67 5.78-8.78 5.78-14.01 0-5.18-2.11-10.26-5.78-13.93l-13.99-13.96zm360.62 2.53c5.31 0 9.63 4.76 9.63 10.07v.73c0 5.31-4.57 9.08-9.88 9.08h-32.73c-5.31 0-9.38-3.77-9.38-9.08v-.73c0-5.31 4.07-10.19 9.38-10.19H2470m.12-1.99h-32.73c-6.43 0-11.38 5.76-11.38 12.19v.73c0 6.43 4.96 11.08 11.38 11.08h32.73c6.43 0 11.88-4.66 11.88-11.08v-.73c0-6.43-5.33-12.19-11.76-12.19h-.12z"/><path fill="#00E676" d="M2471.75-72.45c-8.82 0-16-7.18-16-16s7.18-16 16-16 16 7.18 16 16-7.18 16-16 16z"/><path fill="#FFF" d="M2471.75-103.45c8.27 0 15 6.73 15 15s-6.73 15-15 15-15-6.73-15-15 6.73-15 15-15m0-2c-9.39 0-17 7.61-17 17s7.61 17 17 17 17-7.61 17-17-7.61-17-17-17z"/><path fill="#B2FF59" d="M2178.75-19.77h42.43v42.43h-42.43z"/><path fill="#212121" d="M2192.99 13.48l-8.01-8.01 1.41-1.41 6.6 6.59 20.55-20.54 1.41 1.41z"/><path fill="#00E676" d="M2178.75 41.51h42.43v42.43h-42.43z"/><path fill="#212121" d="M2192.99 74.77l-8.01-8.01 1.41-1.42 6.6 6.6 20.55-20.55 1.41 1.42z"/><path fill="#00E676" d="M2222.18 146.23h-44.43V101.8h44.43v44.43zm-42.43-2h40.43V103.8h-40.43v40.43zm-34-258v72h-72v-72h72m2-2h-76v76h76v-76z"/><path fill="#B2FF59" d="M2131.52-73.53c0-5.71-2.32-11.3-6.37-15.35l-15.4-15.37v2.83l13.99 13.96c3.67 3.67 5.78 8.75 5.78 13.93 0 5.23-2.11 10.34-5.78 14.01-3.75 3.75-8.71 5.81-13.99 5.81v2c5.81 0 11.28-2.27 15.4-6.39 4.05-4.05 6.37-9.67 6.37-15.43z"/><path fill="#FFF" d="M2147.75-115.6l-38 .01v1.82h36v72h-36v2h38zM2420 193h142v2h-142z"/><path fill="#212121" d="M2420 123h141v2h-141zm0-35h141v2h-141zm1-71h106v2h-106z"/><path fill="#212121" d="M2455 18h2v176h-2zm35 0h2v176h-2zm35 0h2v176h-2z"/><path fill="#FFF" d="M2560 17h2v177h-2z"/><path fill="#212121" d="M2420 17h2v177h-2zm35 0h2v37h-2z"/><path fill="#FFF" d="M2560 17h2v37h-2zm-105 143h2v34h-2zm35 0h2v34h-2zm35 0h2v34h-2z"/><path fill="#212121" d="M2421 52h141v2h-141z"/><path fill="#FFF" d="M2525 158h37v2h-37zm0-35h37v2h-37zm0-35h37v2h-37zm0-71h37v2h-37zm0 35h37v2h-37zm2 141h35v2h-35zm-107-33h2v34h-2z"/><path fill="#B2FF59" d="M2288.8 193.17h-179.05v1h179c0-.34.03-.67.05-1zm105.95 0v.93zm-106 1h-179v1h179.05c-.02-.31-.05-.63-.05-.94v-.06z"/><path fill="#FFF" d="M2394.75 194.17v-.07.07zm-78 0v.06c0 .32-.03.62-.05.94l78.05-.06v-.93h-78zm0 0h78v-1h-78.05c.02.33.05.66.05 1z"/><path fill="#B2FF59" d="M2302.75 181.23c6.82 0 12.4 5.26 12.95 11.94h1c-.55-7.22-6.59-12.94-13.95-12.94-7.36 0-13.4 5.72-13.95 12.94h1c.54-6.68 6.13-11.94 12.95-11.94zm0 26c-6.86 0-12.47-5.32-12.95-12.06h-1c.49 7.28 6.55 13.06 13.95 13.06s13.46-5.78 13.95-13.06h-1c-.48 6.74-6.09 12.06-12.95 12.06zm-13-13.06c0-.34.02-.67.05-1h-1c-.02.33-.05.66-.05 1h1zm0 .06v-.06h-1v.06c0 .32.03.63.05.94h1c-.02-.31-.05-.62-.05-.94zm25.95.93h1v.01h-1z"/><path fill="#B2FF59" d="M2315.7 193.16h1v.01h-1zm1.05 1.01c0-.34-.03-.67-.05-1h-1c.03.33.05.66.05 1h1zm0 0h-1v.06c0 .32-.03.63-.05.94h1c.02-.31.05-.62.05-.94v-.06zm-14-11.94c6.26 0 11.41 4.82 11.95 10.94h1c-.54-6.68-6.13-11.94-12.95-11.94-6.82 0-12.41 5.26-12.95 11.94h1c.54-6.12 5.69-10.94 11.95-10.94zm0 24c-6.3 0-11.47-4.88-11.95-11.06h-1c.49 6.74 6.09 12.06 12.95 12.06s12.47-5.32 12.95-12.06h-1c-.48 6.18-5.65 11.06-11.95 11.06zm11.95-11.07h1v.01h-1zm-23.9-1.99h-1c-.03.33-.05.66-.05 1h1c0-.34.02-.67.05-1zm-.05 1.06v-.06h-1v.06c0 .32.03.63.05.94h1c-.03-.31-.05-.62-.05-.94z"/><path fill="#B2FF59" d="M2314.7 193.16h1v.01h-1zm1.05 1.01h-1v.06c0 .32-.02.63-.05.94h1c.02-.31.05-.62.05-.94v-.06zm-1 0h1c0-.34-.02-.67-.05-1h-1c.03.33.05.66.05 1z"/></svg>