<?xml version="1.0" encoding="utf-8"?>
<svg width="766" height="421" viewBox="660 138 766 421" version="1.1" xmlns="http://www.w3.org/2000/svg" xmlns:xlink="http://www.w3.org/1999/xlink">
    <!-- Generator: Sketch 42 (36781) - http://www.bohemiancoding.com/sketch -->
    <desc>Created with Sketch.</desc>
    <defs>
        <polygon id="path-1" points="83.6207079 0.692286288 83.6207079 84.5718849 0.000278735694 84.5718849 0.000278735694 0.692286288 83.6207079 0.692286288"></polygon>
        <polygon id="path-3" points="0 418 763.735799 418 763.735799 0 0 0"></polygon>
    </defs>
    <g id="Page-1" stroke="none" stroke-width="1" fill="none" fill-rule="evenodd" transform="translate(661.000000, 139.000000)">
        <path d="M343.715115,402.622074 L0.000557471387,402.722729 L343.715115,402.622074 Z" id="Stroke-1" stroke="#FFFFFF" stroke-width="2"></path>
        <g id="Group-5" transform="translate(680.115091, 62.909699)">
            <mask id="mask-2" fill="white">
                <use xlink:href="#path-1"></use>
            </mask>
            <g id="Clip-4"></g>
            <path d="M41.8106327,0.692286288 C18.7201679,0.692286288 0.000278735694,19.4687344 0.000278735694,42.6320856 C0.000278735694,65.7940388 18.7201679,84.5718849 41.8106327,84.5718849 C64.9010975,84.5718849 83.6209866,65.7940388 83.6209866,42.6320856 C83.6209866,19.4687344 64.9010975,0.692286288 41.8106327,0.692286288 M41.8106327,3.48827291 C63.3276345,3.48827291 80.8336297,21.0484669 80.8336297,42.6320856 C80.8336297,64.2157043 63.3276345,81.7758983 41.8106327,81.7758983 C20.2936309,81.7758983 2.78763567,64.2157043 2.78763567,42.6320856 C2.78763567,21.0484669 20.2936309,3.48827291 41.8106327,3.48827291" id="Fill-3" fill="#B2FF59" mask="url(#mask-2)"></path>
        </g>
        <path d="M721.403094,0 L721.403094,62.909699" id="Stroke-6" stroke="#B2FF59" stroke-width="2"></path>
        <path d="M721.403094,145.391304 L721.403094,418" id="Stroke-8" stroke="#B2FF59" stroke-width="2"></path>
        <path d="M147.033496,274.006689 C147.033496,311.067492 117.083346,341.110368 80.1369299,341.110368 C43.1905137,341.110368 13.2403635,311.067492 13.2403635,274.006689 C13.2403635,236.945886 43.1905137,206.90301 80.1369299,206.90301 C117.083346,206.90301 147.033496,236.945886 147.033496,274.006689 Z" id="Stroke-10" stroke="#00E676" stroke-width="2"></path>
        <path d="M80.1369299,313.658812 L80.1369299,234.354845" id="Stroke-12" stroke="#FFFFFF" stroke-width="2"></path>
        <path d="M119.666668,274.006689 L40.6074701,274.006689" id="Stroke-14" stroke="#FFFFFF" stroke-width="2"></path>
        <polygon id="Fill-16" fill="#FFFFFF" points="644.750779 417.998322 644.750779 106.245814 382.739227 106.245814 382.739227 417.998322"></polygon>
        <mask id="mask-4" fill="white">
            <use xlink:href="#path-3"></use>
        </mask>
        <g id="Clip-19"></g>
        <polygon id="Fill-18" fill="#B2FF59" mask="url(#mask-4)" points="382.738948 317.343084 644.7505 317.343084 644.7505 1.39659532 382.738948 1.39659532"></polygon>
        <polygon id="Fill-20" fill="#00E676" mask="url(#mask-4)" points="382.738948 106.246094 644.7505 106.246094 644.7505 1.39659532 382.738948 1.39659532"></polygon>
        <path d="M535.172949,317.342804 C535.172949,294.179453 553.891444,275.403005 576.983303,275.403005 C600.073767,275.403005 618.793657,294.179453 618.793657,317.342804 C618.793657,340.506155 600.073767,359.282603 576.983303,359.282603 C553.891444,359.282603 535.172949,340.506155 535.172949,317.342804" id="Fill-21" fill="#00E676" mask="url(#mask-4)"></path>
        <path d="M147.033496,23.7658863 L13.2403635,23.7658863 L13.2403635,157.973244 L147.033496,157.973244 L147.033496,23.7658863 Z M144.246139,26.5618729 L144.246139,155.177258 L16.0277205,155.177258 L16.0277205,26.5618729 L144.246139,26.5618729 Z" id="Fill-22" fill="#FFFFFF" mask="url(#mask-4)"></path>
        <path d="M46.144694,124.96802 L114.12833,124.96802 L114.12833,56.7725084 L46.144694,56.7725084 L46.144694,124.96802 Z M48.9320509,122.170635 L111.340973,122.170635 L111.340973,59.567097 L48.9320509,59.567097 L48.9320509,122.170635 Z" id="Fill-23" fill="#B2FF59" mask="url(#mask-4)"></path>
        <polyline id="Stroke-24" stroke="#FFFFFF" stroke-width="2" mask="url(#mask-4)" points="88.0850781 72.266608 72.1887816 88.2121197 88.0850781 104.157631"></polyline>
        <path d="M258.479134,106.247492 L258.479134,357.886288" id="Stroke-25" stroke="#FFFFFF" stroke-width="2" mask="url(#mask-4)"></path>
        <path d="M299.965318,106.247492 L299.965318,357.886288" id="Stroke-26" stroke="#FFFFFF" stroke-width="2" mask="url(#mask-4)"></path>
        <path d="M341.451642,106.247492 L341.451642,357.886288" id="Stroke-27" stroke="#FFFFFF" stroke-width="2" mask="url(#mask-4)"></path>
        <path d="M216.99295,106.247492 L216.99295,357.886288" id="Stroke-28" stroke="#FFFFFF" stroke-width="2" mask="url(#mask-4)"></path>
        <path d="M216.020859,315.945789 L382.739645,315.945789" id="Stroke-29" stroke="#FFFFFF" stroke-width="2" mask="url(#mask-4)"></path>
        <path d="M216.020859,274.00599 L382.739645,274.00599" id="Stroke-30" stroke="#FFFFFF" stroke-width="2" mask="url(#mask-4)"></path>
        <path d="M216.020859,232.066191 L382.739645,232.066191" id="Stroke-31" stroke="#FFFFFF" stroke-width="2" mask="url(#mask-4)"></path>
        <path d="M216.020859,190.126391 L382.739645,190.126391" id="Stroke-32" stroke="#FFFFFF" stroke-width="2" mask="url(#mask-4)"></path>
        <path d="M216.020859,148.186592 L382.739645,148.186592" id="Stroke-33" stroke="#FFFFFF" stroke-width="2" mask="url(#mask-4)"></path>
        <path d="M216.020859,106.246793 L382.739645,106.246793" id="Stroke-34" stroke="#FFFFFF" stroke-width="2" mask="url(#mask-4)"></path>
        <path d="M216.020859,357.885589 L382.739645,357.885589" id="Stroke-35" stroke="#FFFFFF" stroke-width="2" mask="url(#mask-4)"></path>
        <path d="M382.739227,315.947047 L466.359935,315.947047" id="Stroke-36" stroke="#00E676" stroke-width="2" mask="url(#mask-4)"></path>
        <path d="M382.739227,274.007248 L466.359935,274.007248" id="Stroke-37" stroke="#00E676" stroke-width="2" mask="url(#mask-4)"></path>
        <path d="M382.739227,232.067449 L466.359935,232.067449" id="Stroke-38" stroke="#00E676" stroke-width="2" mask="url(#mask-4)"></path>
        <path d="M382.739227,190.127649 L466.359935,190.127649" id="Stroke-39" stroke="#00E676" stroke-width="2" mask="url(#mask-4)"></path>
        <path d="M382.739227,148.18785 L466.359935,148.18785" id="Stroke-40" stroke="#00E676" stroke-width="2" mask="url(#mask-4)"></path>
        <path d="M382.739227,106.248051 L466.359935,106.248051" id="Stroke-41" stroke="#00E676" stroke-width="2" mask="url(#mask-4)"></path>
        <path d="M382.739227,357.886847 L466.359935,357.886847" id="Stroke-42" stroke="#00E676" stroke-width="2" mask="url(#mask-4)"></path>
        <path d="M343.71637,402.626967 L76.6541274,402.727622" id="Stroke-43" stroke="#00E676" stroke-width="2" mask="url(#mask-4)"></path>
        <path d="M348.480381,36.5825492 L331.492834,19.5717666 L314.503893,36.5825492 C309.821134,41.2798067 307.481148,47.5414187 307.481148,53.5625759 C307.481148,59.5851311 309.821134,65.9376127 314.503893,70.6334722 C319.186653,75.3307298 325.339743,77.7087164 331.492834,77.7087164 C337.644531,77.7087164 343.797621,75.3307298 348.480381,70.6334722 C353.16314,65.9376127 355.503126,59.5851311 355.503126,53.5625759 C355.503126,47.5414187 353.16314,41.2798067 348.480381,36.5825492 Z" id="Stroke-44" stroke="#00E676" stroke-width="2" mask="url(#mask-4)"></path>
        <path d="M307.366866,36.5825492 L290.379319,19.5717666 L273.390379,36.5825492 C268.707619,41.2798067 266.367633,47.5414187 266.367633,53.5625759 C266.367633,59.5851311 268.707619,65.9376127 273.390379,70.6334722 C278.073138,75.3307298 284.226229,77.7087164 290.379319,77.7087164 C296.531016,77.7087164 302.684106,75.3307298 307.366866,70.6334722 C312.049626,65.9376127 314.389612,59.5851311 314.389612,53.5625759 C314.389612,47.5414187 312.049626,41.2798067 307.366866,36.5825492 Z" id="Stroke-45" stroke="#B2FF59" stroke-width="2" mask="url(#mask-4)"></path>
        <path d="M266.253351,37.3541017 L249.265804,20.3433191 L232.276864,37.3541017 C227.594104,42.0513592 225.254118,48.3129712 225.254118,54.3341284 C225.254118,60.3566836 227.594104,66.7091652 232.276864,71.4050247 C236.959624,76.1022823 243.112714,78.4802689 249.265804,78.4802689 C255.417501,78.4802689 261.570592,76.1022823 266.253351,71.4050247 C270.936111,66.7091652 273.276097,60.3566836 273.276097,54.3341284 C273.276097,48.3129712 270.936111,42.0513592 266.253351,37.3541017 Z" id="Stroke-46" stroke="#FFFFFF" stroke-width="2" mask="url(#mask-4)"></path>
        <path d="M423.678672,106.247492 L423.678672,315.946488" id="Stroke-47" stroke="#00E676" stroke-width="2" mask="url(#mask-4)"></path>
        <path d="M465.910334,106.247492 L465.910334,357.886288" id="Stroke-48" stroke="#00E676" stroke-width="2" mask="url(#mask-4)"></path>
        <path d="M384.132906,106.247492 L384.132906,357.886288" id="Stroke-49" stroke="#00E676" stroke-width="2" mask="url(#mask-4)"></path>
        <path d="M423.678672,357.886288 L423.678672,315.946488" id="Stroke-50" stroke="#00E676" stroke-width="2" mask="url(#mask-4)"></path>
    </g>
</svg>
