<svg width="549" height="301" viewBox="0 0 549 301" xmlns="http://www.w3.org/2000/svg"><title>Slice 1</title><g transform="translate(1 1)" fill="none" fill-rule="evenodd"><path d="M246.62 287.05L0 287.12" stroke="#FFF" stroke-width="2"/><path d="M518 46.54c15.44 0 28 12.56 28 28s-12.56 28-28 28-28-12.56-28-28 12.56-28 28-28zm0-2c-16.57 0-30 13.43-30 30s13.43 30 30 30 30-13.43 30-30-13.43-30-30-30z" fill="#B2FF59" fill-rule="nonzero"/><path d="M518 0v45m0 59v195" stroke="#B2FF59" stroke-width="2"/><g transform="translate(9 147)"><circle stroke="#00E676" cx="48.5" cy="48.05" r="48"/><path d="M48.5 76.41V19.68m28.36 28.37H20.14" stroke="#FFF"/></g><path fill="#FFF" fill-rule="nonzero" d="M274.62 75.04h188v223h-188z"/><path fill="#B2FF59" fill-rule="nonzero" d="M274.62.04h188v226h-188z"/><path fill="#00E676" fill-rule="nonzero" d="M274.62.04h188v75h-188z"/><circle fill="#00E676" fill-rule="nonzero" cx="414" cy="226.04" r="30"/><path d="M103.5 18.05v92h-92v-92h92zm2-2h-96v96h96v-96z" fill="#FFF" fill-rule="nonzero"/><path d="M79.89 41.65v44.78H35.11V41.65h44.78zm2-2H33.11v48.78h48.78V39.65z" fill="#B2FF59" fill-rule="nonzero"/><path stroke="#FFF" stroke-width="2" d="M63.2 50.74l-11.4 11.4 11.4 11.41"/><path d="M185.47 75.05v180m29.76-180v180m29.77-180v180m-89.3-180v180m-.7-30.01h119.62m-119.62-30h119.62m-119.62-30h119.62m-119.62-30h119.62m-119.62-30h119.62M155 75.04h119.62M155 255.04h119.62" stroke="#FFF"/><path d="M274.62 225.05h60m-60-30h60m-60-30h60m-60-30h60m-60-30h60m-60-30h60m-60 180h60" stroke="#00E676"/><path d="M246.62 287.05L55 287.12l191.62-.07zm3.42-261.84l-12.19-12.17-12.19 12.17a17.274 17.274 0 0 0-5.04 12.15c0 4.31 1.68 8.85 5.04 12.21a17.215 17.215 0 0 0 24.38 0c3.36-3.36 5.04-7.9 5.04-12.21 0-4.31-1.68-8.79-5.04-12.15z" stroke="#00E676" stroke-width="2"/><path d="M220.54 25.21l-12.19-12.17-12.19 12.17a17.274 17.274 0 0 0-5.04 12.15c0 4.31 1.68 8.85 5.04 12.21a17.215 17.215 0 0 0 24.38 0c3.36-3.36 5.04-7.9 5.04-12.21 0-4.31-1.68-8.79-5.04-12.15z" stroke="#B2FF59" stroke-width="2"/><path d="M191.04 25.76l-12.19-12.17-12.19 12.17a17.274 17.274 0 0 0-5.04 12.15c0 4.31 1.68 8.85 5.04 12.21a17.215 17.215 0 0 0 24.38 0c3.36-3.36 5.04-7.9 5.04-12.21 0-4.31-1.68-8.79-5.04-12.15z" stroke="#FFF" stroke-width="2"/><path d="M304 75.05v150m30.3-150v180m-58.68-180v180m28.38 0v-30" stroke="#00E676" stroke-width="2"/></g></svg>