<svg width="587" height="417" viewBox="0 0 587 417" xmlns="http://www.w3.org/2000/svg"><title>welcome-root</title><g transform="translate(1 2)" fill="none" fill-rule="evenodd"><path d="M8.98 251.97l204.73-.07c4.58 0 8.3 3.72 8.3 8.3v145.23c0 4.58-3.72 8.3-8.3 8.3l-204.73.07c-4.58 0-8.3-3.72-8.3-8.3V260.27c0-4.59 3.72-8.3 8.3-8.3zM399 413.28H255l72-144 72 144z" stroke="#FFF" stroke-width="2" fill="#212121" fill-rule="nonzero"/><path stroke="#FFF" stroke-width="2" fill="#212121" fill-rule="nonzero" d="M127 73.5h388.95v285.77H127z"/><path d="M127 103.5h388.95" stroke="#FFF" stroke-width="2"/><path d="M473 179.78h99.28c6.63 0 12 5.37 12 12v210c0 6.63-5.37 12-12 12H473c-6.63 0-12-5.37-12-12v-210c0-6.63 5.37-12 12-12z" stroke="#FFF" stroke-width="2" fill="#212121" fill-rule="nonzero"/><path d="M415 321H239V145h176z"/><path fill="#FFF" fill-rule="nonzero" d="M239 262h58.81L356 203.56V145H239z"/><circle fill="#00E676" fill-rule="nonzero" cx="356.47" cy="262.23" r="58.67"/><path d="M356 203.56c-32 0-58.19 26.44-58.19 58.44H356v-58.44z" fill="#B2FF59" fill-rule="nonzero"/><path d="M239 144.9h176v176H239z"/><path stroke="#FFF" stroke-width="2" fill="#212121" fill-rule="nonzero" d="M97.234 109.149l16.377 16.376-59.284 59.283-16.376-16.376z"/><circle stroke="#FFF" stroke-width="2" fill="#212121" fill-rule="nonzero" cx="132.13" cy="92.43" r="56.75"/><path d="M213.71 251.78l-86.76.03v107.47h95.06v-99.2c0-4.59-3.72-8.3-8.3-8.3z" stroke="#00E676" stroke-width="2"/><path d="M172.26 132.56c15.97-15.97 20.43-39.09 13.39-59.05h-58.26v75.46c16.06 1.34 32.58-4.13 44.87-16.41z" stroke="#B2FF59" stroke-width="2"/><path stroke="#FFF" stroke-width="2" d="M427.93 83.98l-36.31-36.31 36.31-36.31L416.88.31l-47.36 47.36 47.36 47.36 11.05-11.05z"/><path stroke="#FFF" stroke-width="2" fill="#212121" fill-rule="nonzero" d="M468.97 83.98l36.31-36.31-36.31-36.3L480.02.32l47.36 47.35-47.36 47.36z"/><path d="M154.67 85.05v35.46m-17.73-17.73h35.45M147.98 309.2l18.33 18.33 39.27-39.27" stroke="#FFF" stroke-width="2"/><path d="M514.95 179.78H473c-6.63 0-12 5.37-12 12v167.5h53.95v-179.5z" stroke="#00E676" stroke-width="2"/><circle fill="#B2FF59" fill-rule="nonzero" cx="551" cy="360.9" r="20"/><path d="M551 349.08v23.63m-11.82-11.81h23.64" stroke="#000" stroke-width="2"/><path stroke="#B2FF59" stroke-width="2" fill="#212121" fill-rule="nonzero" d="M427.93 83.98L417.46 73.5h-22.1l21.52 21.53z"/><path stroke="#00E676" stroke-width="2" fill="#212121" fill-rule="nonzero" d="M480.02 95.03l21.53-21.53h-22.1l-10.48 10.48z"/></g></svg>