<svg version="1.1" xmlns="http://www.w3.org/2000/svg" xmlns:xlink="http://www.w3.org/1999/xlink" x="0px" y="0px" width="640"
     height="640" viewBox="88 711 640 640" enable-background="new 88 711 640 640" xml:space="preserve">
<g id="Layer_2">
    <g>
        <rect x="88" y="711" fill="#212121" width="640" height="640"/>
    </g>
</g>
<g id="Layer_1">
    <g>
        <line fill="none" stroke="#FFFFFF" stroke-width="2" stroke-miterlimit="10" x1="380.62" y1="1169.05" x2="134" y2="1169.12"/>
        <g>
            <g>
                <g>
                    <path fill="#B2FF59" d="M652,928.54c15.44,0,28,12.56,28,28s-12.56,28-28,28c-15.44,0-28-12.56-28-28S636.56,928.54,652,928.54
                         M652,926.54c-16.57,0-30,13.43-30,30s13.43,30,30,30s30-13.43,30-30S668.57,926.54,652,926.54L652,926.54z"/>
                </g>
            </g>
            <line fill="none" stroke="#B2FF59" stroke-width="2" stroke-miterlimit="10" x1="652" y1="882" x2="652" y2="927"/>
            <line fill="none" stroke="#B2FF59" stroke-width="2" stroke-miterlimit="10" x1="652" y1="986" x2="652" y2="1181"/>
        </g>
        <g>
            <circle fill="none" stroke="#00E676" stroke-width="2" stroke-miterlimit="10" cx="191.5" cy="1077.05" r="48"/>
            <line fill="none" stroke="#FFFFFF" stroke-width="2" stroke-miterlimit="10" x1="191.5" y1="1105.41" x2="191.5" y2="1048.68"/>

                <line fill="none" stroke="#FFFFFF" stroke-width="2" stroke-miterlimit="10" x1="219.86" y1="1077.05" x2="163.14" y2="1077.05"/>
        </g>
        <g>
            <rect x="408.62" y="957.04" fill="#FFFFFF" width="188" height="223"/>
            <rect x="408.62" y="882.04" fill="#B2FF59" width="188" height="226"/>
            <g>
                <rect x="408.62" y="882.04" fill="#00E676" width="188" height="75"/>
            </g>
            <g>
                <circle fill="#00E676" cx="548" cy="1108.04" r="30"/>
            </g>
        </g>
        <g>
            <g>
                <path fill="#FFFFFF" d="M237.5,900.05v92l-92,0v-92H237.5 M239.5,898.05h-96v96l96,0V898.05L239.5,898.05z"/>
            </g>
            <g>
                <g>
                    <path fill="#B2FF59" d="M213.89,923.65v44.78l-44.78,0v-44.78H213.89 M215.89,921.65h-48.78v48.78l48.78,0V921.65
                        L215.89,921.65z"/>
                </g>
            </g>
            <polyline fill="none" stroke="#FFFFFF" stroke-width="2" stroke-miterlimit="10" points="197.2,932.74 185.8,944.14
                197.2,955.55            "/>
        </g>
        <g>
            <line fill="none" stroke="#FFFFFF" stroke-width="2" stroke-miterlimit="10" x1="319.47" y1="957.05" x2="319.47" y2="1137.05"/>
            <line fill="none" stroke="#FFFFFF" stroke-width="2" stroke-miterlimit="10" x1="349.23" y1="957.05" x2="349.23" y2="1137.05"/>
            <line fill="none" stroke="#FFFFFF" stroke-width="2" stroke-miterlimit="10" x1="379" y1="957.05" x2="379" y2="1137.05"/>
            <line fill="none" stroke="#FFFFFF" stroke-width="2" stroke-miterlimit="10" x1="289.7" y1="957.05" x2="289.7" y2="1137.05"/>
            <g>
                <line fill="none" stroke="#FFFFFF" stroke-width="2" stroke-miterlimit="10" x1="289" y1="1107.04" x2="408.62" y2="1107.04"/>
                <line fill="none" stroke="#FFFFFF" stroke-width="2" stroke-miterlimit="10" x1="289" y1="1077.04" x2="408.62" y2="1077.04"/>
                <line fill="none" stroke="#FFFFFF" stroke-width="2" stroke-miterlimit="10" x1="289" y1="1047.04" x2="408.62" y2="1047.04"/>
                <line fill="none" stroke="#FFFFFF" stroke-width="2" stroke-miterlimit="10" x1="289" y1="1017.04" x2="408.62" y2="1017.04"/>
                <line fill="none" stroke="#FFFFFF" stroke-width="2" stroke-miterlimit="10" x1="289" y1="987.04" x2="408.62" y2="987.04"/>
                <line fill="none" stroke="#FFFFFF" stroke-width="2" stroke-miterlimit="10" x1="289" y1="957.04" x2="408.62" y2="957.04"/>
                <line fill="none" stroke="#FFFFFF" stroke-width="2" stroke-miterlimit="10" x1="289" y1="1137.04" x2="408.62" y2="1137.04"/>
            </g>
            <g>

                    <line fill="none" stroke="#00E676" stroke-width="2" stroke-miterlimit="10" x1="408.62" y1="1107.05" x2="468.62" y2="1107.05"/>

                    <line fill="none" stroke="#00E676" stroke-width="2" stroke-miterlimit="10" x1="408.62" y1="1077.05" x2="468.62" y2="1077.05"/>

                    <line fill="none" stroke="#00E676" stroke-width="2" stroke-miterlimit="10" x1="408.62" y1="1047.05" x2="468.62" y2="1047.05"/>

                    <line fill="none" stroke="#00E676" stroke-width="2" stroke-miterlimit="10" x1="408.62" y1="1017.05" x2="468.62" y2="1017.05"/>
                <line fill="none" stroke="#00E676" stroke-width="2" stroke-miterlimit="10" x1="408.62" y1="987.05" x2="468.62" y2="987.05"/>
                <line fill="none" stroke="#00E676" stroke-width="2" stroke-miterlimit="10" x1="408.62" y1="957.05" x2="468.62" y2="957.05"/>

                    <line fill="none" stroke="#00E676" stroke-width="2" stroke-miterlimit="10" x1="408.62" y1="1137.05" x2="468.62" y2="1137.05"/>
            </g>
        </g>
        <line fill="none" stroke="#00E676" stroke-width="2" stroke-miterlimit="10" x1="380.62" y1="1169.05" x2="189" y2="1169.12"/>
        <path id="XMLID_5_" fill="none" stroke="#00E676" stroke-width="2" stroke-miterlimit="10" d="M384.04,907.21l-12.19-12.17
            l-12.19,12.17c-3.36,3.36-5.04,7.84-5.04,12.15c0,4.31,1.68,8.85,5.04,12.21c3.36,3.36,7.77,5.06,12.19,5.06
            c4.41,0,8.83-1.7,12.19-5.06c3.36-3.36,5.04-7.9,5.04-12.21C389.08,915.05,387.4,910.57,384.04,907.21z"/>
        <path id="XMLID_3_" fill="none" stroke="#B2FF59" stroke-width="2" stroke-miterlimit="10" d="M354.54,907.21l-12.19-12.17
            l-12.19,12.17c-3.36,3.36-5.04,7.84-5.04,12.15c0,4.31,1.68,8.85,5.04,12.21c3.36,3.36,7.77,5.06,12.19,5.06
            c4.41,0,8.83-1.7,12.19-5.06c3.36-3.36,5.04-7.9,5.04-12.21C359.58,915.05,357.9,910.57,354.54,907.21z"/>
        <path id="XMLID_1_" fill="none" stroke="#FFFFFF" stroke-width="2" stroke-miterlimit="10" d="M325.04,907.76l-12.19-12.17
            l-12.19,12.17c-3.36,3.36-5.04,7.84-5.04,12.15c0,4.31,1.68,8.85,5.04,12.21c3.36,3.36,7.77,5.06,12.19,5.06
            c4.41,0,8.83-1.7,12.19-5.06c3.36-3.36,5.04-7.9,5.04-12.21C330.08,915.6,328.4,911.12,325.04,907.76z"/>
        <line fill="none" stroke="#00E676" stroke-width="2" stroke-miterlimit="10" x1="438" y1="957.05" x2="438" y2="1107.05"/>
        <line fill="none" stroke="#00E676" stroke-width="2" stroke-miterlimit="10" x1="468.3" y1="957.05" x2="468.3" y2="1137.05"/>
        <line fill="none" stroke="#00E676" stroke-width="2" stroke-miterlimit="10" x1="409.62" y1="957.05" x2="409.62" y2="1137.05"/>
        <line fill="none" stroke="#00E676" stroke-width="2" stroke-miterlimit="10" x1="438" y1="1137.05" x2="438" y2="1107.05"/>
    </g>
</g>
</svg>
