<?xml version="1.0" encoding="utf-8"?>
<!-- Generator: Adobe Illustrator 19.0.0, SVG Export Plug-In . SVG Version: 6.00 Build 0)  -->
<svg version="1.1" id="icon" xmlns="http://www.w3.org/2000/svg" xmlns:xlink="http://www.w3.org/1999/xlink" x="0px" y="0px"
	 width="24px" height="24px" viewBox="0 0 24 24" style="enable-background:new 0 0 24 24;" xml:space="preserve">
<style type="text/css">
	.st0{fill:none;}
</style>
<g>
	<path d="M16,8.1V2H2v14h6.1c0.5,3.4,3.4,6,6.9,6c3.9,0,7-3.1,7-7C22,11.5,19.4,8.6,16,8.1z M8.1,14H4V4h10v4.1
		C10.9,8.5,8.5,10.9,8.1,14z M14,10.1V14h-3.9C10.5,12,12,10.5,14,10.1z M15,20c-2.4,0-4.4-1.7-4.9-4H16v-5.9c2.3,0.5,4,2.5,4,4.9
		C20,17.8,17.8,20,15,20z"/>
	<rect class="st0" width="24" height="24"/>
</g>
</svg>
