<svg xmlns="http://www.w3.org/2000/svg" width="320" height="320" viewBox="0 0 320 320"><path fill="#212121" d="M0 0h320v320H0z"/><path fill="#FFF" d="M271.49 271.4H104V103.91h167.49V271.4zm-166.49-1h165.49V104.91H105V270.4z"/><path fill="#FFF" d="M159.5 104.41h1V270.9h-1zm55.5 0h1V270.9h-1z"/><path fill="#FFF" d="M104.5 159.5h166.49v1H104.5zm0 55.59h166.49v1H104.5z"/><path fill="#00E676" d="M105 215.59h-1V103.91h111.5v1H105z"/><path fill="#00E676" d="M159.5 104.41h1v111.18h-1z"/><path fill="#00E676" d="M104.5 159.5h110.99v1H104.5z"/><path fill="#B2FF59" d="M216 216.09H48.51V48.6H216v167.49zm-166.49-1H215V49.6H49.51v165.49z"/><path fill="#FFF" d="M124.9 144.25l-8.04-8.05.71-.7 7.33 7.33 22.04-22.03.7.71z"/><path fill="#00E676" d="M104.06 215.09h111.9v1h-111.9z"/><path fill="#00E676" d="M215 103.95h1v111.64h-1z"/></svg>