<svg xmlns="http://www.w3.org/2000/svg" xmlns:xlink="http://www.w3.org/1999/xlink" width="320" height="320" viewBox="0 0 320 320"><path fill="#212121" d="M0 0h320v320H0z"/><path fill="#FFF" d="M200.11 39.53h1v154.92h-1z"/><path fill="#FFF" d="M183.61 63.36l-.8-.59 17.8-24.08 17.79 24.08-.8.59-16.99-22.99zm17 131.93l-17.8-24.08.8-.59 17 22.99 16.99-22.99.8.59z"/><path fill="#B2FF59" d="M116.93 126.16h-7.56V60.05h7.56v26.67h10.43v6.51h-10.43v32.93zm-6.56-1h5.56V92.23h10.43v-4.51h-10.43V61.05h-5.56v64.11zm-40.26-11.45l-4.68-5.81.57-.27c14.46-6.95 24.25-19.96 25.67-34.06H68.54v-6.59H99.8l-.01.51c-.36 19.87-10.5 35.79-29.32 46.03l-.36.19zM67 108.25l3.37 4.18c18.09-9.97 27.91-25.33 28.42-44.46H69.54v4.59h23.21l-.05.54C91.48 87.58 81.65 101 67 108.25z"/><path fill="#00E676" d="M96 284.08c-29.5 0-53.5-24-53.5-53.5s24-53.5 53.5-53.5 53.5 24 53.5 53.5-24 53.5-53.5 53.5zm0-106c-28.95 0-52.5 23.55-52.5 52.5s23.55 52.5 52.5 52.5 52.5-23.55 52.5-52.5-23.55-52.5-52.5-52.5z"/><path fill="#FFF" d="M112.166 248.766l2.988 3.983-.8.6-2.988-3.983zM96.22 252.04h1v5.89h-1zm-14.95-3.271l.8.6-2.987 3.984-.8-.6z"/><path fill="#FFF" d="M96.52 252.55c-15.1 0-28.2-8.13-35.02-21.75a.505.505 0 0 1 .22-.67c.25-.12.55-.02.67.22 6.65 13.27 19.41 21.2 34.12 21.2 14.72 0 27.47-7.92 34.12-21.2.12-.25.42-.35.67-.22.25.12.35.42.22.67-6.81 13.62-19.9 21.75-35 21.75z"/><path fill="#00E676" d="M131.09 231.08c-.18 0-.36-.1-.45-.28-6.65-13.27-19.41-21.2-34.12-21.2s-27.48 7.92-34.12 21.2c-.12.25-.42.35-.67.22a.488.488 0 0 1-.22-.67c6.82-13.62 19.91-21.75 35.02-21.75s28.2 8.13 35.02 21.75c.12.25.02.55-.22.67-.09.05-.17.06-.24.06z"/><path fill="#00E676" d="M114.353 207.802l.8.6-2.99 3.982-.8-.6zM96.22 203.23h1v5.89h-1zm-17.146 4.58l2.987 3.985-.8.6-2.988-3.984zM96 241.48c-6.01 0-10.9-4.89-10.9-10.9s4.89-10.9 10.9-10.9 10.9 4.89 10.9 10.9-4.89 10.9-10.9 10.9zm0-20.79c-5.46 0-9.9 4.44-9.9 9.9s4.44 9.9 9.9 9.9 9.9-4.44 9.9-9.9-4.44-9.9-9.9-9.9z"/><circle fill="#00E676" cx="96" cy="230.58" r="4.79"/><defs><path id="a" d="M96 146.03c-29.5 0-53.5-24-53.5-53.5s24-53.5 53.5-53.5 53.5 24 53.5 53.5-24 53.5-53.5 53.5zm0-106c-28.95 0-52.5 23.55-52.5 52.5s23.55 52.5 52.5 52.5 52.5-23.55 52.5-52.5-23.55-52.5-52.5-52.5z"/></defs><use xlink:href="#a" overflow="visible" fill="#FFF"/><g fill="#FFF"><path d="M266.69 39.53h1v240.98h-1z"/><path d="M250.2 63.36l-.8-.59 17.79-24.08 17.8 24.08-.8.59-17-22.99zm16.99 217.99l-17.79-24.08.8-.59 16.99 22.99 17-22.99.8.59z"/></g></svg>