<svg xmlns="http://www.w3.org/2000/svg" width="192" height="192" viewBox="0 0 192 192"><path fill="#212121" d="M0 0h192v192H0z"/><path fill="#FFF" d="M163.6 163.54H61.7V61.64h101.9v101.9zm-99.9-2h97.89v-97.9H63.7v97.9z"/><path fill="#FFF" d="M95 62.64h2v99.89h-2zm33.3 0h2v99.89h-2z"/><path fill="#FFF" d="M62.7 95h99.89v2H62.7zm0 33.36h99.89v2H62.7z"/><path fill="#00E676" d="M63.7 129.36h-2V61.64h67.6v2H63.7z"/><path fill="#00E676" d="M95 62.64h2v66.71h-2z"/><path fill="#00E676" d="M62.7 95h66.6v2H62.7z"/><path fill="#B2FF59" d="M130.3 130.36H28.4V28.46h101.9v101.9zm-99.9-2h97.89v-97.9H30.4v97.9z"/><path fill="#FFF" d="M74.94 87.54l-5.32-5.32 1.42-1.42 3.9 3.91 12.73-12.72 1.41 1.41z"/><path fill="#00E676" d="M62.44 128.36h67.14v2H62.44z"/><path fill="#00E676" d="M128.3 62.37h2v66.98h-2z"/></svg>