<svg xmlns="http://www.w3.org/2000/svg" width="192" height="192" viewBox="-283 465 192 192"><path fill="#212121" d="M-283 465h192v192h-192z"/><path fill="#FFF" d="M-188.44 488.72h2v92.95h-2z"/><path fill="#FFF" d="M-177.8 503.43l-9.64-13.03-9.63 13.03-1.61-1.18 11.24-15.21 11.25 15.21zm-9.64 79.92l-11.24-15.21 1.61-1.18 9.63 13.03 9.64-13.03 1.61 1.18z"/><path fill="#B2FF59" d="M-236.95 541.4h-5.93v-41.06h5.93v16h6.26v5.31h-6.26v19.75zm-3.93-2h1.93v-19.76h6.26v-1.31h-6.26v-16h-1.93v37.07zm-25.03-5.28l-3.73-4.63 1.14-.55c8.19-3.94 13.82-11.19 14.91-19.1h-13.78v-5.35h20.16l-.02 1.02c-.22 12.19-6.43 21.94-17.95 28.21l-.73.4zm-.61-3.94l1.11 1.38c10.07-5.73 15.63-14.37 16.15-25.07h-16.11v1.35h13.99l-.09 1.08c-.75 8.68-6.47 16.72-15.05 21.26z"/><path fill="#00E676" d="M-250.2 636.15c-18.09 0-32.8-14.71-32.8-32.8 0-18.09 14.71-32.8 32.8-32.8s32.8 14.71 32.8 32.8c0 18.09-14.71 32.8-32.8 32.8zm0-63.6c-16.98 0-30.8 13.82-30.8 30.8s13.82 30.8 30.8 30.8 30.8-13.82 30.8-30.8-13.82-30.8-30.8-30.8z"/><path fill="#FFF" d="M-239.749 617.44l-1.794-2.392 1.6-1.2 1.794 2.391zm-11.021-1.22h2v3.54h-2zm-9.027 1.216l-1.601-1.199 1.793-2.393 1.6 1.2z"/><path fill="#FFF" d="M-249.89 617.23c-9.33 0-17.42-5.02-21.64-13.43a.993.993 0 0 1 .45-1.34.993.993 0 0 1 1.34.45c3.87 7.72 11.29 12.33 19.85 12.33 8.56 0 15.98-4.61 19.85-12.33.25-.49.85-.69 1.34-.45.49.25.69.85.45 1.34-4.22 8.41-12.31 13.43-21.64 13.43z"/><path fill="#00E676" d="M-229.15 604.35c-.37 0-.72-.2-.9-.55-3.87-7.72-11.29-12.33-19.85-12.33s-15.98 4.61-19.85 12.33c-.25.49-.85.69-1.34.45a1.01 1.01 0 0 1-.45-1.34c4.21-8.41 12.3-13.43 21.64-13.43 9.33 0 17.42 5.02 21.64 13.43a.993.993 0 0 1-.89 1.44z"/><path fill="#00E676" d="M-239.961 592.864l-1.6-1.201 1.796-2.391 1.6 1.201zm-10.809-5.924h2v3.54h-2zm-8.825 5.916l-1.793-2.393 1.6-1.2 1.794 2.393zm9.395 17.734c-3.99 0-7.24-3.25-7.24-7.24s3.25-7.24 7.24-7.24 7.24 3.25 7.24 7.24-3.25 7.24-7.24 7.24zm0-12.48c-2.89 0-5.24 2.35-5.24 5.24s2.35 5.24 5.24 5.24 5.24-2.35 5.24-5.24-2.35-5.24-5.24-5.24z"/><circle fill="#00E676" cx="-250.2" cy="603.35" r="2.87"/><path fill="#FFF" d="M-250.2 553.32c-18.09 0-32.8-14.71-32.8-32.8 0-18.09 14.71-32.8 32.8-32.8s32.8 14.71 32.8 32.8c0 18.09-14.71 32.8-32.8 32.8zm0-63.6c-16.98 0-30.8 13.82-30.8 30.8s13.82 30.8 30.8 30.8 30.8-13.82 30.8-30.8-13.82-30.8-30.8-30.8z"/><g fill="#FFF"><path d="M-148.48 488.72h2v144.59h-2z"/><path d="M-137.85 503.43l-9.63-13.03-9.64 13.03-1.6-1.18 11.24-15.21 11.24 15.21zm-9.63 131.56l-11.24-15.21 1.6-1.19 9.64 13.03 9.63-13.03 1.61 1.19z"/></g></svg>