<svg xmlns="http://www.w3.org/2000/svg" xmlns:xlink="http://www.w3.org/1999/xlink" width="192" height="192" viewBox="0 0 192 192"><path fill="#212121" d="M0 0h192v192H0z"/><path fill="#FFF" d="M119.36 23.72h2v92.95h-2z"/><path fill="#FFF" d="M130 38.43l-9.64-13.03-9.63 13.03-1.61-1.18 11.24-15.21 11.25 15.21zm-9.64 79.92l-11.24-15.21 1.61-1.18 9.63 13.03 9.64-13.03 1.61 1.18z"/><path fill="#B2FF59" d="M70.85 76.4h-5.93V35.34h5.93v16h6.26v5.31h-6.26V76.4zm-3.93-2h1.93V54.64h6.26v-1.31h-6.26v-16h-1.93V74.4zm-25.03-5.28l-3.73-4.63 1.14-.55c8.19-3.94 13.82-11.19 14.91-19.1H40.43v-5.35h20.16l-.02 1.02c-.22 12.19-6.43 21.94-17.95 28.21l-.73.4zm-.61-3.94l1.11 1.38c10.07-5.73 15.63-14.37 16.15-25.07H42.43v1.35h13.99l-.09 1.08c-.75 8.68-6.47 16.72-15.05 21.26z"/><path fill="#00E676" d="M57.6 171.15c-18.09 0-32.8-14.71-32.8-32.8s14.71-32.8 32.8-32.8 32.8 14.71 32.8 32.8-14.71 32.8-32.8 32.8zm0-63.6c-16.98 0-30.8 13.82-30.8 30.8s13.82 30.8 30.8 30.8 30.8-13.82 30.8-30.8-13.82-30.8-30.8-30.8z"/><path fill="#FFF" d="M67.869 148.843l1.794 2.392-1.6 1.2-1.794-2.391zM57.03 151.22h2v3.54h-2zm-8.835-2.373l1.6 1.199-1.793 2.393-1.6-1.2z"/><path fill="#FFF" d="M57.91 152.23c-9.33 0-17.42-5.02-21.64-13.43a.993.993 0 0 1 .45-1.34.993.993 0 0 1 1.34.45c3.87 7.72 11.29 12.33 19.85 12.33 8.56 0 15.98-4.61 19.85-12.33.25-.49.85-.69 1.34-.45.49.25.69.85.45 1.34-4.22 8.41-12.31 13.43-21.64 13.43z"/><path fill="#00E676" d="M78.65 139.35c-.37 0-.72-.2-.9-.55-3.87-7.72-11.29-12.33-19.85-12.33-8.56 0-15.98 4.61-19.85 12.33-.25.49-.85.69-1.34.45a1.01 1.01 0 0 1-.45-1.34c4.21-8.41 12.3-13.43 21.64-13.43 9.33 0 17.42 5.02 21.64 13.43a.993.993 0 0 1-.89 1.44z"/><path fill="#00E676" d="M68.048 124.263l1.6 1.2-1.796 2.391-1.6-1.2zM57.03 121.94h2v3.54h-2zm-9.026 2.327l1.794 2.393-1.6 1.2-1.794-2.393zM57.6 145.59c-3.99 0-7.24-3.25-7.24-7.24s3.25-7.24 7.24-7.24 7.24 3.25 7.24 7.24-3.25 7.24-7.24 7.24zm0-12.48c-2.89 0-5.24 2.35-5.24 5.24s2.35 5.24 5.24 5.24 5.24-2.35 5.24-5.24-2.35-5.24-5.24-5.24z"/><circle fill="#00E676" cx="57.6" cy="138.35" r="2.87"/><defs><path id="a" d="M57.6 88.32c-18.09 0-32.8-14.71-32.8-32.8s14.71-32.8 32.8-32.8 32.8 14.71 32.8 32.8-14.71 32.8-32.8 32.8zm0-63.6c-16.98 0-30.8 13.82-30.8 30.8s13.82 30.8 30.8 30.8 30.8-13.82 30.8-30.8-13.82-30.8-30.8-30.8z"/></defs><use xlink:href="#a" overflow="visible" fill="#FFF"/><g fill="#FFF"><path d="M159.32 23.72h2v144.59h-2z"/><path d="M169.95 38.43l-9.63-13.03-9.64 13.03-1.6-1.18 11.24-15.21 11.24 15.21zm-9.63 131.56l-11.24-15.21 1.6-1.19 9.64 13.03 9.63-13.03 1.61 1.19z"/></g></svg>