<svg xmlns="http://www.w3.org/2000/svg" width="320" height="320" viewBox="0 0 320 320"><path fill="#212121" d="M0 0h320v320H0z"/><path fill="#B2FF59" d="M271.53 214.31c12.03 0 21.77 9.74 21.77 21.77s-9.74 21.77-21.77 21.77-21.77-9.74-21.77-21.77v-21.77h21.77m0-1.14h-22.91v22.91c0 12.66 10.25 22.91 22.91 22.91s22.91-10.25 22.91-22.91-10.25-22.91-22.91-22.91z"/><path fill="#B2FF59" d="M248.61 118.98v94.19h-71.52v-94.19h71.52m.86-1.14h-73.23v96.47h73.23v-96.47z"/><path fill="#FFF" d="M270.62 224.51h1v23.14h-1z"/><path fill="#FFF" d="M259.55 235.58h23.14v1h-23.14zm-41.05-89.3H48.9v-.5c0-27.6 13.49-53.51 36.1-69.41L69.66 51.83a4.461 4.461 0 0 1-.57-3.4c.27-1.18.98-2.18 2-2.82 2.11-1.32 4.9-.67 6.22 1.43l15.34 24.53c12.52-6.94 26.7-10.6 41.05-10.6 14.34 0 28.53 3.66 41.05 10.6l15.33-24.53a4.53 4.53 0 0 1 6.22-1.44c1.02.64 1.73 1.64 2 2.82.27 1.17.07 2.38-.57 3.4L182.4 76.38c22.61 15.9 36.1 41.81 36.1 69.41v.49zm-168.6-1h167.6c-.16-27.24-13.62-52.77-36.06-68.36l-.39-.27 15.84-25.35c.5-.79.66-1.73.45-2.65-.21-.92-.76-1.7-1.56-2.19-1.64-1.02-3.82-.52-4.84 1.12L175.1 72.92l-.42-.23a83.954 83.954 0 0 0-40.98-10.71c-14.33 0-28.5 3.7-40.97 10.71l-.42.23-15.84-25.34a3.526 3.526 0 0 0-4.84-1.12c-.79.5-1.35 1.28-1.56 2.19-.21.91-.05 1.85.45 2.64l15.84 25.35-.39.27c-22.45 15.61-35.9 41.13-36.07 68.37z"/><path fill="#B2FF59" d="M176.24 117.84v96.47h73.23v-96.47h-73.23zm72.37 95.33h-71.52v-94.19h71.52v94.19z"/><path fill="#B2FF59" d="M176.24 117.84v96.47h73.23v-96.47h-73.23zm.85 95.33v-94.19h71.52v94.19h-71.52z"/><path fill="#B2FF59" d="M176.24 117.84v96.47h73.23v-96.47h-73.23zm72.38 95.33H177.1v-94.19h71.52v94.19z"/><path fill="#00E676" d="M53.01 237.32c-.68-3.2-1.02-6.51-1.02-9.83 0-26.24 21.34-47.58 47.58-47.58 17.45 0 33.48 9.53 41.83 24.88l-.88.48a46.596 46.596 0 0 0-40.95-24.36c-25.68 0-46.58 20.9-46.58 46.58 0 3.25.34 6.49 1 9.62l-.98.21zm46.56 37.75c-16.91 0-32.69-9.09-41.18-23.74l.86-.5c8.32 14.33 23.77 23.24 40.32 23.24 25.69 0 46.58-20.9 46.58-46.58 0-2.73-.24-5.46-.71-8.13l.98-.17c.48 2.73.72 5.52.72 8.31.01 26.23-21.33 47.57-47.57 47.57z"/><path fill="#00E676" d="M53.35 238.19l-12.06-12.74.73-.69 11.23 11.87 9.67-13.17.81.59zm82.87-4.97l-.81-.59 10.38-14.14 12.06 12.74-.73.69-11.23-11.87zm82.28-86.94h-42.45v-28.4h37.41l.15.16.08.08c.16.16.29.3.42.69a84.47 84.47 0 0 1 4.39 26.96v.51zm-41.44-1h40.44a83.497 83.497 0 0 0-4.33-26.15c-.05-.15-.07-.19-.12-.25h-35.99v26.4z"/></svg>