<svg xmlns="http://www.w3.org/2000/svg" width="192" height="192" viewBox="0 0 192 192"><path fill="#212121" d="M0 0h192v192H0z"/><path fill="#B2FF59" d="M150.5 129.58h-45.57V70.03h45.57v59.55zm-43.57-2h41.57V72.03h-41.57v55.55z"/><path fill="#FFF" d="M162.77 135.91h2v13.88h-2z"/><path fill="#FFF" d="M156.83 141.86h13.88v2h-13.88zM131.8 88.47H28.64v-1c0-16.57 7.99-32.13 21.42-41.83L41.2 31.47c-.48-.77-.64-1.68-.43-2.57.2-.89.74-1.64 1.51-2.13 1.59-.99 3.7-.51 4.7 1.08l8.85 14.16a51.657 51.657 0 0 1 24.38-6.13c8.5 0 16.91 2.12 24.39 6.13l8.85-14.16c1-1.59 3.1-2.08 4.7-1.08.77.48 1.31 1.24 1.51 2.13.2.89.05 1.8-.43 2.57l-8.85 14.17c13.43 9.7 21.42 25.27 21.42 41.83v1zm-101.15-2h99.14c-.32-15.85-8.24-30.65-21.33-39.74l-.78-.54 9.86-15.78a1.408 1.408 0 0 0-.44-1.94 1.41 1.41 0 0 0-1.94.45l-9.86 15.77-.83-.47a49.682 49.682 0 0 0-24.25-6.33c-8.48 0-16.86 2.19-24.24 6.33l-.83.47-9.86-15.77a1.41 1.41 0 0 0-1.94-.45c-.32.2-.54.51-.62.88-.08.37-.02.74.18 1.06l9.86 15.78-.78.54c-13.1 9.09-21.02 23.89-21.34 39.74z"/><path fill="#00E676" d="M31.12 142.54c-.42-1.97-.63-4-.63-6.04 0-16.13 13.12-29.25 29.25-29.25 10.73 0 20.58 5.86 25.71 15.29l-1.76.96a27.252 27.252 0 0 0-23.95-14.25c-15.02 0-27.25 12.22-27.25 27.25 0 1.9.2 3.8.58 5.63l-1.95.41zm28.62 23.2c-10.39 0-20.09-5.59-25.31-14.59l1.73-1c4.87 8.38 13.9 13.59 23.58 13.59 15.03 0 27.25-12.22 27.25-27.25 0-1.6-.14-3.2-.41-4.76l1.97-.35c.29 1.68.44 3.39.44 5.11 0 16.13-13.12 29.25-29.25 29.25z"/><path fill="#00E676" d="M32.08 144l-7.81-8.25 1.45-1.37 6.16 6.51 5.31-7.23 1.61 1.19zm50.22-3.65l-1.62-1.19 6.73-9.15 7.81 8.25-1.46 1.37-6.16-6.51zm49.5-51.88h-26.87V70.03h23.45l.3.32c.21.2.34.38.45.73a51.313 51.313 0 0 1 2.67 16.39v1zm-24.87-2h22.86c-.1-4.94-.92-9.79-2.45-14.44h-20.41v14.44z"/><path fill="#B2FF59" d="M163.77 158.13c-8.41 0-15.26-6.84-15.27-15.25v-15.29h15.29c8.41.01 15.25 6.86 15.25 15.27 0 8.42-6.85 15.27-15.27 15.27zm-13.27-28.55v13.29c.01 7.31 5.96 13.25 13.27 13.25 7.32 0 13.27-5.95 13.27-13.27 0-7.31-5.95-13.26-13.25-13.27H150.5z"/></svg>