<svg xmlns="http://www.w3.org/2000/svg" width="192" height="192" viewBox="-283 465 192 192"><path fill="#212121" d="M-283 465h192v192h-192z"/><path fill="#FFF" d="M-147.8 628.54h-101.9v-101.9h101.9v101.9zm-99.9-2h97.89v-97.9h-97.89v97.9z"/><path fill="#FFF" d="M-216.4 527.64h2v99.89h-2zm33.3 0h2v99.89h-2z"/><path fill="#FFF" d="M-248.7 560h99.89v2h-99.89zm0 33.36h99.89v2h-99.89z"/><path fill="#00E676" d="M-247.7 594.36h-2v-67.72h67.6v2h-65.6z"/><path fill="#00E676" d="M-216.4 527.64h2v66.71h-2z"/><path fill="#00E676" d="M-248.7 560h66.6v2h-66.6z"/><path fill="#B2FF59" d="M-181.1 595.36H-283v-101.9h101.9v101.9zm-99.9-2h97.89v-97.9H-281v97.9z"/><path fill="#FFF" d="M-236.46 552.54l-5.32-5.32 1.42-1.42 3.9 3.91 12.73-12.72 1.41 1.41z"/><path fill="#00E676" d="M-248.96 593.36h67.14v2h-67.14z"/><path fill="#00E676" d="M-183.1 527.37h2v66.98h-2z"/></svg>