<svg xmlns="http://www.w3.org/2000/svg" width="192" height="192" viewBox="0 0 192 192"><path fill="#212121" d="M0 0h192v192H0z"/><path fill="#B2FF59" d="M98.31 112.09H-.05L49.13 26.9l49.18 85.19zm-94.9-2h91.43L49.13 30.9 3.41 110.09z"/><path fill="#FFF" d="M113.17 168.02c-24.48 0-44.4-19.92-44.4-44.4 0-24.49 19.92-44.41 44.4-44.41 24.48 0 44.4 19.92 44.4 44.41 0 24.48-19.92 44.4-44.4 44.4zm0-86.81c-23.38 0-42.4 19.02-42.4 42.41 0 23.38 19.02 42.4 42.4 42.4s42.4-19.02 42.4-42.4c0-23.39-19.02-42.41-42.4-42.41z"/><path fill="#00E676" d="M98.31 112.09H70.26l.39-1.29a44.358 44.358 0 0 1 13.53-20.81l.92-.79 13.21 22.89zm-25.33-2h21.87L84.58 92.31a42.303 42.303 0 0 0-11.6 17.78z"/><path fill="#FFF" d="M134.37 57.15l-5.67-5.67 13.98-13.98-13.98-13.99 5.67-5.67 19.65 19.65-19.65 19.66zm-2.84-5.67l2.84 2.84 16.82-16.82-16.82-16.82-2.84 2.84 13.98 13.98-13.98 13.98zm-34.26 5.67L77.62 37.49l19.65-19.65 5.67 5.67-13.99 13.98 13.98 13.98-5.66 5.68zM80.44 37.49l16.82 16.82 2.84-2.84-13.97-13.98 13.98-13.98-2.84-2.84-16.83 16.82z"/><path fill="#00E676" d="M53.89 174.16H36v-6.93h9.72v-24.18H36v-6.93h17.89v38.04zm-15.89-2h13.89v-34.04H38v2.93h9.72v28.18H38v2.93zm-16.66 2H3.45v-38.04h17.89v6.93h-9.65v24.18h9.65v6.93zm-15.89-2h13.89v-2.93H9.69v-28.18h9.65v-2.93H5.45v34.04z"/></svg>