<svg xmlns="http://www.w3.org/2000/svg" width="192" height="192" viewBox="-283 465 192 192"><path fill="#212121" d="M-283 465h192v192h-192z"/><path fill="#FFF" d="M-147.92 595.3h-101.9V493.4h101.89l.01 101.9zm-99.9-2h97.89v-97.9h-97.89v97.9z"/><path fill="#FFF" d="M-248.82 560h99.89v2h-99.89zm0-33.3h99.89v2h-99.89z"/><path fill="#FFF" d="M-216.46 494.4h2v99.89h-2zm33.36 0h2v99.89h-2z"/><path fill="#00E676" d="M-182.1 595.3h-67.72v-67.6h2v65.6h65.72z"/><path fill="#00E676" d="M-248.82 560h66.71v2h-66.71z"/><path fill="#00E676" d="M-216.46 527.7h2v66.6h-2z"/><path fill="#FFF" d="M-202.34 585.46l-5.32-5.32 1.41-1.41 3.91 3.91 12.72-12.73 1.41 1.42z"/><path fill="#B2FF59" d="M-181.1 628.6H-283V526.7h101.89l.01 101.9zm-99.9-2h97.89v-97.9H-281v97.9z"/><path fill="#00E676" d="M-183.13 527.43h2v67.14h-2z"/><path fill="#00E676" d="M-249.11 526.71h66.98v2h-66.98z"/></svg>