<svg xmlns="http://www.w3.org/2000/svg" width="320" height="320" viewBox="0 0 320 320"><path fill="#212121" d="M0 0h320v320H0z"/><path fill="#FFF" d="M271.4 216H103.91V48.51H271.4V216zm-166.49-1H270.4V49.51H104.91V215z"/><path fill="#FFF" d="M104.41 159.5H270.9v1H104.41zm0-55.5H270.9v1H104.41z"/><path fill="#FFF" d="M159.5 49.01h1V215.5h-1zm55.59 0h1V215.5h-1z"/><path fill="#00E676" d="M215.59 216H103.91V104.5h1V215h110.68z"/><path fill="#00E676" d="M104.41 159.5h111.18v1H104.41z"/><path fill="#00E676" d="M159.5 104.5h1v110.99h-1z"/><path fill="#FFF" d="M181.86 199.13l-8.04-8.05.7-.7 7.34 7.33 22.03-22.03.71.71z"/><path fill="#B2FF59" d="M216.09 271.49H48.6V104h167.49v167.49zm-166.49-1h165.49V105H49.6v165.49z"/><path fill="#00E676" d="M215.06 104.05h1v111.9h-1z"/><path fill="#00E676" d="M103.92 104.01h111.64v1H103.92z"/></svg>