<svg xmlns="http://www.w3.org/2000/svg" width="192" height="192" viewBox="0 0 192 192"><path fill="#212121" d="M0 0h192v192H0z"/><path fill="#FFF" d="M133.43 170.45c-20.96 0-38-17.05-38-38s17.05-38 38-38c20.96 0 38 17.05 38 38s-17.04 38-38 38zm0-74.01c-19.85 0-36 16.15-36 36s16.15 36 36 36 36-16.15 36-36c.01-19.85-16.14-36-36-36z"/><path fill="none" stroke="#B2FF59" stroke-width="2" stroke-miterlimit="10" d="M114.75 146.83l-2.85-3.54c10.89-5.23 17.6-14.9 18.44-24.84H113.9v-3.96h21.45c-.26 14.69-7.97 25.47-20.6 32.34zm32.76-18.34h7.4v3.91h-7.4v23.36h-4.65v-46.18h4.65v18.91z"/><path fill="#00E676" d="M58.57 97.56c-20.96 0-38-17.05-38-38s17.05-38 38-38 38 17.05 38 38-17.05 38-38 38zm0-74.01c-19.85 0-36 16.15-36 36s16.15 36 36 36 36-16.15 36-36-16.15-36-36-36z"/><path fill="#FFF" d="M70.382 71.868l2.089 2.784-1.6 1.2-2.089-2.784zM58.07 74.54h2v4.11h-2zm-10.308-2.67l1.6 1.199-2.08 2.777-1.601-1.2z"/><path fill="#FFF" d="M58.93 75.55c-10.8 0-20.15-5.81-25.03-15.54a.993.993 0 0 1 .45-1.34.993.993 0 0 1 1.34.45c4.53 9.04 13.22 14.44 23.24 14.44 10.02 0 18.71-5.4 23.24-14.44.25-.49.85-.7 1.34-.45.49.25.69.85.45 1.34-4.88 9.73-14.23 15.54-25.03 15.54z"/><path fill="#00E676" d="M83.07 60.56c-.37 0-.72-.2-.9-.55-4.53-9.04-13.22-14.44-23.24-14.44-10.02 0-18.71 5.4-23.24 14.44-.25.49-.85.69-1.34.45a1.01 1.01 0 0 1-.45-1.34c4.88-9.73 14.23-15.54 25.03-15.54s20.16 5.81 25.03 15.54c.25.49.05 1.09-.45 1.34-.14.06-.29.1-.44.1z"/><path fill="#00E676" d="M70.87 43.273l1.6 1.2-2.089 2.784-1.6-1.2zm-12.8-2.813h2v4.11h-2zm-10.8 2.806l2.081 2.777-1.6 1.2-2.081-2.777zm11.3 24.544c-4.55 0-8.26-3.71-8.26-8.26s3.71-8.26 8.26-8.26 8.26 3.71 8.26 8.26-3.71 8.26-8.26 8.26zm0-14.51c-3.45 0-6.26 2.81-6.26 6.26s2.81 6.26 6.26 6.26 6.26-2.81 6.26-6.26-2.81-6.26-6.26-6.26z"/><circle fill="#00E676" cx="58.57" cy="59.56" r="3.35"/><g fill="#FFF"><path d="M23.072 102.722l65.725 65.725-1.415 1.414-65.725-65.725z"/><path d="M23.98 120.94l-2.81-18.7 18.7 2.8-.29 1.98-16.03-2.4 2.4 16.03zm65.3 49.41l-18.71-2.81.3-1.98 16.03 2.41-2.41-16.03 1.98-.3z"/></g></svg>