<svg xmlns="http://www.w3.org/2000/svg" width="320" height="320" viewBox="0 0 320 320"><path fill="#212121" d="M0 0h320v320H0z"/><path fill="#FFF" d="M222.39 282.91c-34.28 0-62.17-27.89-62.17-62.17s27.89-62.17 62.17-62.17 62.17 27.89 62.17 62.17-27.89 62.17-62.17 62.17zm0-123.34c-33.73 0-61.17 27.44-61.17 61.17 0 33.73 27.44 61.17 61.17 61.17s61.17-27.44 61.17-61.17c0-33.73-27.44-61.17-61.17-61.17z"/><path fill="#B2FF59" d="M246.35 260.1h-8.75v-77.97h8.75v31.53h12.33v7.52h-12.33v38.92zm-7.75-1h6.75v-38.92h12.33v-5.52h-12.33v-31.53h-6.75v75.97zm-47.48-13.75l-5.41-6.72.57-.27c17.16-8.25 28.76-23.7 30.4-40.44h-27.34v-7.6h36.76l-.01.51c-.42 23.46-12.39 42.24-34.61 54.33l-.36.19zm-3.85-6.36l4.1 5.09c21.49-11.82 33.13-30.05 33.71-52.76h-34.74v5.6h27.43l-.05.54c-1.45 17.11-13.1 32.97-30.45 41.53z"/><path fill="#00E676" d="M97.61 161.43c-34.28 0-62.17-27.89-62.17-62.17s27.89-62.17 62.17-62.17 62.17 27.89 62.17 62.17-27.88 62.17-62.17 62.17zm0-123.34c-33.73 0-61.17 27.44-61.17 61.17 0 33.73 27.44 61.17 61.17 61.17 33.73 0 61.17-27.44 61.17-61.17.01-33.73-27.44-61.17-61.17-61.17z"/><path fill="#FFF" d="M116.376 120.476l3.475 4.631-.8.6-3.475-4.63zM97.96 124.23h1v6.86h-1zm-17.429-3.759l.8.6-3.473 4.633-.8-.6z"/><path fill="#FFF" d="M98.22 124.75c-17.55 0-32.75-9.44-40.68-25.26a.505.505 0 0 1 .22-.67c.25-.12.55-.02.67.22 7.75 15.47 22.62 24.71 39.78 24.71s32.03-9.24 39.78-24.71c.12-.25.42-.35.67-.22.25.12.35.42.22.67-7.91 15.81-23.12 25.26-40.66 25.26z"/><path fill="#00E676" d="M138.45 99.76c-.18 0-.36-.1-.45-.28-7.75-15.47-22.62-24.71-39.78-24.71s-32.03 9.24-39.78 24.71c-.12.25-.42.35-.67.22a.488.488 0 0 1-.22-.67c7.93-15.82 23.13-25.26 40.68-25.26 17.54 0 32.75 9.44 40.68 25.26.12.25.02.55-.22.67-.09.04-.17.06-.24.06z"/><path fill="#00E676" d="M119.04 72.81l.8.6-3.477 4.63-.8-.6zm-21.08-5.37h1v6.86h-1zm-20.107 5.369l3.472 4.632-.8.6-3.473-4.632zM97.61 111.86c-6.95 0-12.6-5.65-12.6-12.6s5.65-12.6 12.6-12.6 12.6 5.65 12.6 12.6-5.65 12.6-12.6 12.6zm0-24.2c-6.4 0-11.6 5.2-11.6 11.6s5.2 11.6 11.6 11.6 11.6-5.2 11.6-11.6-5.2-11.6-11.6-11.6z"/><circle fill="#00E676" cx="97.61" cy="99.26" r="5.58"/><g fill="#FFF"><path d="M37.619 172.032l109.543 109.544-.707.707L36.911 172.74z"/><path d="M41.11 201.4l-4.44-29.61 29.61 4.44-.15.99-28.27-4.24 4.24 28.27zm106.29 81.12l-29.61-4.44.15-.99 28.28 4.24-4.25-28.27.99-.15z"/></g></svg>