<svg xmlns="http://www.w3.org/2000/svg" width="192" height="192" viewBox="-283 465 192 192"><path fill="#212121" d="M-283 465h192v192h-192z"/><path fill="#00E676" d="M-200.87 553.79h-52.17v-52.17h52.17v52.17zm-50.17-2h48.17v-48.17h-48.17v48.17z"/><path fill="#B2FF59" d="M-139.25 620.05h-64.35l32.17-55.72 32.18 55.72zm-60.88-2h57.42l-28.71-49.72-28.71 49.72z"/><path fill="#FFF" d="M-226.86 620.38c-15.21 0-27.59-12.38-27.59-27.58 0-15.21 12.38-27.59 27.59-27.59s27.59 12.38 27.59 27.59c0 15.21-12.38 27.58-27.59 27.58zm0-53.17c-14.11 0-25.59 11.48-25.59 25.59s11.48 25.58 25.59 25.58 25.59-11.48 25.59-25.58c0-14.11-11.48-25.59-25.59-25.59zm47.98-24.59l-4.56-4.56 10.35-10.35-10.35-10.35 4.56-4.56 14.91 14.91-14.91 14.91zm-1.73-4.57l1.74 1.74 12.09-12.09-12.09-12.09-1.74 1.74 10.35 10.35-10.35 10.35zm-87.47 4.57L-283 527.7l14.91-14.91 4.56 4.56-10.34 10.35 10.35 10.35-4.56 4.57zm-12.09-14.92l12.09 12.09 1.74-1.74-10.35-10.35 10.34-10.35-1.74-1.74-12.08 12.09zm143.75 77.27l-4.56-4.56 10.35-10.35-10.35-10.35 4.56-4.56 14.91 14.91-14.91 14.91zm-1.74-4.56l1.74 1.74 12.09-12.09-12.09-12.09-1.74 1.74 10.35 10.35-10.35 10.35zm-129.92 4.56l-14.91-14.91 14.91-14.91 4.56 4.56-10.35 10.35 10.35 10.35-4.56 4.56zm-12.09-14.91l12.09 12.09 1.74-1.74-10.35-10.35 10.35-10.35-1.74-1.74-12.09 12.09z"/></svg>