<svg xmlns="http://www.w3.org/2000/svg" width="320" height="320" viewBox="0 0 320 320"><path fill="#212121" d="M0 0h320v320H0z"/><path fill="#00E676" d="M161.14 146.81H76.53V62.2h84.61v84.61zm-83.61-1h82.61V63.2H77.53v82.61z"/><path fill="#B2FF59" d="M262.97 257.24h-103.2l51.6-89.37 51.6 89.37zm-101.46-1h99.73l-49.87-86.37-49.86 86.37z"/><path fill="#FFF" d="M118.99 257.8c-24.71 0-44.81-20.1-44.81-44.81s20.1-44.81 44.81-44.81 44.81 20.1 44.81 44.81-20.1 44.81-44.81 44.81zm0-88.61c-24.16 0-43.81 19.65-43.81 43.81s19.65 43.81 43.81 43.81S162.8 237.16 162.8 213s-19.65-43.81-43.81-43.81zm79.97-41.48l-5.96-5.96 17.25-17.25L193 87.25l5.96-5.96 23.21 23.21-23.21 23.21zm-4.55-5.96l4.54 4.54 21.79-21.79-21.79-21.79-4.54 4.54 17.25 17.25-17.25 17.25zm-144.13 5.96L27.07 104.5l23.21-23.2 5.96 5.96-17.25 17.24 17.25 17.25-5.96 5.96zM28.49 104.5l21.79 21.79 4.54-4.54-17.25-17.25 17.25-17.25-4.54-4.54-21.79 21.79zm241.23 127.14l-5.96-5.96 17.25-17.25-17.25-17.25 5.96-5.96 23.21 23.21-23.21 23.21zm-4.54-5.96l4.54 4.54 21.79-21.79-21.79-21.79-4.54 4.54 17.25 17.25-17.25 17.25zm-214.9 5.96l-23.21-23.21 23.21-23.21 5.96 5.96-17.25 17.25 17.25 17.25-5.96 5.96zm-21.79-23.21l21.79 21.79 4.54-4.54-17.25-17.25 17.25-17.25-4.54-4.54-21.79 21.79z"/></svg>