<svg xmlns="http://www.w3.org/2000/svg" width="192" height="192" viewBox="0 0 192 192"><path fill="#212121" d="M0 0h192v192H0z"/><path fill="#FFF" d="M163.54 130.3H61.64V28.4h101.89v101.9zm-99.9-2h97.89V30.4H63.64v97.9z"/><path fill="#FFF" d="M62.64 95h99.89v2H62.64zm0-33.3h99.89v2H62.64z"/><path fill="#FFF" d="M95 29.4h2v99.89h-2zm33.36 0h2v99.89h-2z"/><path fill="#00E676" d="M129.36 130.3H61.64V62.7h2v65.6h65.72z"/><path fill="#00E676" d="M62.64 95h66.71v2H62.64z"/><path fill="#00E676" d="M95 62.7h2v66.6h-2z"/><path fill="#FFF" d="M109.12 120.46l-5.32-5.32 1.41-1.41 3.91 3.91 12.72-12.73 1.41 1.42z"/><path fill="#B2FF59" d="M130.36 163.6H28.46V61.7h101.89v101.9zm-99.9-2h97.89V63.7H30.46v97.9z"/><path fill="#00E676" d="M128.33 62.43h2v67.14h-2z"/><path fill="#00E676" d="M62.35 61.71h66.98v2H62.35z"/></svg>