<svg xmlns="http://www.w3.org/2000/svg" width="320" height="320" viewBox="0 0 320 320"><path fill="#212121" d="M0 0h320v320H0z"/><path fill="#FFF" d="M219.24 155.27l-17.35-17.35 17.35-17.35 4.59 4.59-12.76 12.76 12.76 12.76-4.59 4.59zm-15.93-17.34l15.93 15.93 3.18-3.18-12.76-12.76 12.76-12.76-3.18-3.18-15.93 15.95zm46.7 17.34l-4.59-4.59 12.76-12.76-12.76-12.76 4.59-4.59 17.35 17.35-17.35 17.35zm-3.18-4.58l3.18 3.18 15.93-15.93L250.01 122l-3.18 3.18 12.76 12.76-12.76 12.75z"/><path fill="#B2FF59" d="M183.74 226.72h-51.55l-.14-.25-25.63-44.39.14-.25 25.63-44.39h51.55l.14.25 25.63 44.39-.14.25-25.63 44.39zm-50.97-1h50.4l25.2-43.64-25.2-43.64h-50.4l-25.2 43.64 25.2 43.64z"/><path fill="#FFF" d="M107.26 270.86H55.71l-.14-.25-25.63-44.39.14-.25 25.63-44.39h51.55l.14.25 25.63 44.39-.14.25-25.63 44.39zm-50.98-1h50.4l25.2-43.64-25.2-43.64h-50.4l-25.2 43.64 25.2 43.64zm204.01-87.25h-51.55l-.14-.25-25.63-44.39.14-.25 25.63-44.39h51.55l.14.25 25.63 44.39-.14.25-25.63 44.39zm-50.97-1h50.4l25.2-43.64-25.2-43.64h-50.4l-25.2 43.64 25.2 43.64z"/><path fill="#00E676" d="M183.94 138.43h-51.55l-.14-.25-25.63-44.39.14-.25 25.63-44.39h51.55l.14.25 25.63 44.39-.14.25-25.63 44.39zm-50.97-1h50.4l25.2-43.64-25.2-43.64h-50.4l-25.2 43.64 25.2 43.64zM260.2 270.86h-51.55l-.14-.25-25.63-44.39.14-.25 25.63-44.39h51.55l.14.25 25.63 44.39-.14.25-25.63 44.39zm-50.97-1h50.4l25.2-43.64-25.2-43.64h-50.4l-25.2 43.64 25.2 43.64z"/></svg>