<svg xmlns="http://www.w3.org/2000/svg" width="320" height="320" viewBox="0 0 320 320"><path fill="#212121" d="M0 0h320v320H0z"/><path fill="#B2FF59" d="M222.26 215.67h-15.45v-31.63h15.45a6.27 6.27 0 0 1 6.26 6.26v19.11a6.27 6.27 0 0 1-6.26 6.26zm-14.45-1h14.45c2.9 0 5.26-2.36 5.26-5.26V190.3c0-2.9-2.36-5.26-5.26-5.26h-14.45v29.63zm-8.74 1h-91.05L92.2 199.85l15.82-15.82h91.05v31.64zm-90.64-1h89.64v-29.63h-89.64l-14.82 14.82 14.82 14.81z"/><path fill="#00E676" d="M131.28 168.75c-14.49 0-27.2-8.91-31.62-22.18l-.22-.65 31.34-.36v-20.49H99.77l.25-.67c4.92-13.26 17.63-22.17 31.62-22.17 13.22 0 25.11 7.58 30.4 19.33h64.8c1.27-.17 2.57.29 3.58 1.27 1.21 1.17 1.8 2.86 1.61 4.63v16.44c0 3.14-2.37 5.51-5.51 5.51h-64.84c-5.29 11.76-17.19 19.34-30.4 19.34zm-30.45-21.85c4.48 12.5 16.63 20.85 30.45 20.85 12.93 0 24.56-7.47 29.62-19.03l.13-.3h65.49c2.57 0 4.51-1.94 4.51-4.51v-16.52c.16-1.47-.31-2.86-1.31-3.83-.8-.77-1.81-1.13-2.78-1h-65.56l-.13-.3c-5.06-11.56-16.68-19.03-29.62-19.03-13.33 0-25.47 8.35-30.42 20.84h30.56v22.48l-30.94.35z"/><path fill="#FFF" d="M39.74 185.41c-1.75-8.27-2.64-16.82-2.64-25.4 0-32.86 12.79-63.75 36.03-86.99 23.23-23.23 54.12-36.03 86.97-36.03 45.11 0 86.55 24.65 108.13 64.32l-.88.48c-21.41-39.35-62.51-63.8-107.25-63.8-32.59 0-63.22 12.69-86.26 35.74-23.05 23.04-35.74 53.69-35.74 86.28 0 8.51.88 16.99 2.62 25.2l-.98.2zm120.36 97.6c-21.95 0-43.49-5.85-62.3-16.92a123.664 123.664 0 0 1-44.16-44.44l.86-.5a122.737 122.737 0 0 0 43.81 44.08c18.65 10.98 40.02 16.78 61.79 16.78 32.59 0 63.23-12.69 86.28-35.73 23.04-23.04 35.74-53.68 35.74-86.26 0-7.14-.62-14.31-1.86-21.3l.98-.17c1.24 7.05 1.87 14.27 1.87 21.48 0 32.85-12.8 63.74-36.03 86.97-23.23 23.21-54.12 36.01-86.98 36.01z"/><path fill="#FFF" d="M40.28 185.96l-19.36-16.47.65-.76 18.45 15.69 12.14-20.95.87.5zm226.93-26.53l-.83-.55 14.14-21.12 18.26 17.68-.7.72-17.39-16.85z"/></svg>