<svg xmlns="http://www.w3.org/2000/svg" width="192" height="192" viewBox="-283 465 192 192"><path fill="#212121" d="M-283 465h192v192h-192z"/><path fill="#FFF" d="M-168.61 537.77l-9.98 9.98 9.98 9.98 2.33-2.33-7.65-7.65 7.65-7.65-2.33-2.33zm18.47 19.97l9.98-9.98-9.98-9.98-2.33 2.33 7.65 7.65-7.65 7.65 2.33 2.33z"/><path fill="#B2FF59" d="M-189.5 601.73h-31.74l-15.87-27.49 15.87-27.49h31.74l15.87 27.49-15.87 27.49zm-30.58-2h29.43l14.71-25.49-14.71-25.48h-29.43l-14.71 25.49 14.71 25.48z"/><path fill="#FFF" d="M-235.39 628.22h-31.74L-283 600.73l15.87-27.49h31.74l15.87 27.49-15.87 27.49zm-30.59-2h29.43l14.71-25.49-14.71-25.49h-29.43l-14.71 25.49 14.71 25.49zm122.41-50.95h-31.74l-15.87-27.49 15.87-27.49h31.74l15.87 27.49-15.87 27.49zm-30.58-2h29.43l14.71-25.49-14.71-25.49h-29.43l-14.71 25.49 14.71 25.49z"/><path fill="#00E676" d="M-189.38 548.76h-31.74l-15.87-27.49 15.87-27.49h31.74l15.87 27.49-15.87 27.49zm-30.58-2h29.43l14.71-25.49-14.71-25.49h-29.43l-14.72 25.49 14.72 25.49zm76.34 81.46h-31.74l-15.87-27.49 15.87-27.49h31.74l15.87 27.49-15.87 27.49zm-30.59-2h29.43l14.71-25.49-14.71-25.49h-29.43l-14.71 25.49 14.71 25.49z"/></svg>