<svg xmlns="http://www.w3.org/2000/svg" width="192" height="192" viewBox="0 0 192 192"><path fill="#212121" d="M0 0h192v192H0z"/><path fill="#B2FF59" d="M133.36 130.1h-9.97v-20.38h9.97c2.46 0 4.46 2 4.46 4.46v11.47c-.01 2.45-2.01 4.45-4.46 4.45zm-7.97-2h7.97c1.35 0 2.46-1.1 2.46-2.46v-11.47c0-1.35-1.1-2.46-2.46-2.46h-7.97v16.39zm-5.25 2H64.52l-10.19-10.19 10.19-10.19h55.62v20.38zm-54.79-2h52.79v-16.38H65.35l-8.19 8.19 8.19 8.19z"/><path fill="#00E676" d="M78.77 101.95c-9 0-16.89-5.54-19.64-13.79l-.43-1.3 19.07-.22v-10.9H58.85l.5-1.35c3.06-8.23 10.94-13.76 19.63-13.76 8.05 0 15.31 4.53 18.69 11.6h38.39c.96-.11 1.93.24 2.68.96.87.85 1.3 2.05 1.18 3.31v9.83c0 2.28-1.72 4.01-4.01 4.01H97.45c-3.37 7.08-10.63 11.61-18.68 11.61zM61.52 88.83c2.84 6.71 9.6 11.12 17.25 11.12 7.48 0 14.21-4.32 17.13-11l.26-.6h39.75c1.16 0 2.01-.84 2.01-2.01l.01-9.99c.07-.66-.14-1.29-.58-1.72-.32-.31-.72-.46-1.08-.41l-.14.01H96.37l-.26-.6c-2.92-6.68-9.65-11-17.13-11-7.37 0-14.1 4.41-17.19 11.1h17.98v14.88l-18.25.22z"/><path fill="#FFF" d="M23.16 111.39A74.508 74.508 0 0 1 21.56 96c0-41.08 33.42-74.51 74.5-74.51 27.33 0 52.42 14.93 65.49 38.96l-1.76.96A72.501 72.501 0 0 0 96.06 23.5c-39.98 0-72.5 32.53-72.5 72.51 0 5.06.52 10.1 1.56 14.97l-1.96.41zm72.9 59.11c-26.47 0-51.18-14.24-64.48-37.17l1.73-1c12.95 22.31 36.99 36.17 62.75 36.17 39.98 0 72.51-32.52 72.51-72.5 0-4.24-.37-8.5-1.1-12.66l1.97-.35c.75 4.27 1.13 8.65 1.13 13.01 0 41.08-33.43 74.5-74.51 74.5z"/><path fill="#FFF" d="M24.35 112.65L12.1 102.23l1.29-1.53 10.44 8.88 6.86-11.85 1.73 1zm136.56-16.6l-1.66-1.11 8.95-13.37 11.55 11.19-1.39 1.44-9.83-9.53z"/></svg>