<svg xmlns="http://www.w3.org/2000/svg" width="192" height="192" viewBox="0 0 192 192"><path fill="#212121" d="M0 0h192v192H0z"/><path fill="#FFF" d="M132.74 72.77l-9.98 9.98 9.98 9.98 2.33-2.33-7.65-7.65 7.65-7.65-2.33-2.33zm18.47 19.97l9.98-9.98-9.98-9.98-2.33 2.33 7.65 7.65-7.65 7.65 2.33 2.33z"/><path fill="#B2FF59" d="M111.85 136.73H80.11l-15.87-27.49 15.87-27.49h31.74l15.87 27.49-15.87 27.49zm-30.58-2h29.43l14.71-25.49-14.71-25.48H81.27l-14.71 25.49 14.71 25.48z"/><path fill="#FFF" d="M65.96 163.22H34.22l-15.87-27.49 15.87-27.49h31.74l15.87 27.49-15.87 27.49zm-30.59-2H64.8l14.71-25.49-14.71-25.49H35.37l-14.71 25.49 14.71 25.49zm122.41-50.95h-31.74l-15.87-27.49 15.87-27.49h31.74l15.87 27.49-15.87 27.49zm-30.58-2h29.43l14.71-25.49-14.71-25.49H127.2l-14.71 25.49 14.71 25.49z"/><path fill="#00E676" d="M111.97 83.76H80.23L64.36 56.27l15.87-27.49h31.74l15.87 27.49-15.87 27.49zm-30.58-2h29.43l14.71-25.49-14.71-25.49H81.39L66.67 56.27l14.72 25.49zm76.34 81.46h-31.74l-15.87-27.49 15.87-27.49h31.74l15.87 27.49-15.87 27.49zm-30.59-2h29.43l14.71-25.49-14.71-25.49h-29.43l-14.71 25.49 14.71 25.49z"/></svg>