<svg xmlns="http://www.w3.org/2000/svg" width="320" height="320" viewBox="0 0 320 320"><path fill="#212121" d="M0 0h320v320H0z"/><path fill="#B2FF59" d="M102.96 170.34H67.02v-36.08h-4.16c-8.42 0-15.4-6.85-15.56-15.27-.08-4.12 1.51-8.05 4.45-11.05 3-3.05 7.15-4.8 11.4-4.8h3.86V67.01h36.14v-3.86c0-4.25 1.75-8.41 4.8-11.4 3-2.95 6.92-4.51 11.05-4.45 8.42.16 15.27 7.13 15.27 15.56v4.16h36.14v35.94h-5.16c-4.27 0-8.28 1.69-11.27 4.75s-4.59 7.1-4.49 11.38c.19 8.49 7.4 15.4 16.06 15.4h4.86v35.85h-35.94v-5.07c0-4.27-1.69-8.28-4.75-11.27s-7.1-4.59-11.38-4.49c-8.49.19-15.4 7.4-15.4 16.06v4.77zm-34.94-1h33.94v-3.8c0-9.2 7.35-16.86 16.38-17.06 4.55-.11 8.85 1.59 12.1 4.77 3.26 3.18 5.05 7.44 5.05 11.98v4.07h33.94v-33.85h-3.86c-9.2 0-16.86-7.35-17.06-16.38-.1-4.55 1.59-8.85 4.77-12.1 3.18-3.25 7.44-5.05 11.98-5.05h4.16V68.01h-36.14v-5.16c0-7.88-6.41-14.41-14.28-14.56-3.85-.08-7.52 1.41-10.33 4.17-2.86 2.81-4.5 6.71-4.5 10.69v4.86H68.02v36.14h-4.86c-3.98 0-7.88 1.64-10.69 4.5-2.76 2.81-4.24 6.48-4.17 10.33.15 7.88 6.68 14.28 14.56 14.28h5.16v36.08z"/><path fill="#00E676" d="M170.42 272.71h-35.94v-5.16c0-4.27-1.69-8.28-4.75-11.27s-7.1-4.58-11.38-4.49c-8.49.19-15.4 7.4-15.4 16.06v4.8H67.02v-36.08h-4.16c-8.42 0-15.4-6.85-15.56-15.27-.08-4.12 1.51-8.05 4.45-11.05 3-3.05 7.15-4.8 11.4-4.8h3.86v-36.14h35.02v-3.86c0-8.16 6.49-16.97 16.96-16.97 4.46 0 8.65 1.83 11.79 5.16 2.98 3.15 4.69 7.35 4.69 11.51v4.16h34.94v35.94h-5.16c-4.27 0-8.28 1.69-11.27 4.75s-4.59 7.1-4.49 11.38c.19 8.64 7.25 15.4 16.06 15.4h4.86v35.93zm-34.93-1h33.94v-33.94h-3.86c-9.36 0-16.85-7.19-17.06-16.38-.1-4.55 1.59-8.85 4.77-12.1 3.18-3.25 7.44-5.05 11.98-5.05h4.16V170.3h-34.94v-5.16c0-7.57-6.22-15.67-15.48-15.67-9.86 0-15.96 8.29-15.96 15.97v4.86H68.02v36.14h-4.86c-3.98 0-7.88 1.64-10.69 4.5-2.76 2.81-4.24 6.48-4.17 10.33.15 7.88 6.68 14.28 14.56 14.28h5.16v36.08h33.94v-3.8c0-9.2 7.35-16.86 16.38-17.06 4.54-.1 8.85 1.59 12.1 4.77 3.26 3.18 5.05 7.44 5.05 11.98v4.19z"/><path fill="#FFF" d="M169.42 272.71v-34.94h-4.28c-4.5 0-8.71-1.8-11.85-5.08-2.96-3.09-4.71-7.24-4.79-11.4-.08-4.4 1.7-8.79 4.9-12.04 3.19-3.25 7.47-5.04 12.04-5.04l3.99.03v-34.93h34.9v-3.86c0-8.16 6.49-16.97 16.96-16.97 4.46 0 8.65 1.83 11.79 5.16 2.98 3.15 4.69 7.35 4.69 11.51v4.16h34.94v35.94h-5.16c-4.27 0-8.28 1.69-11.27 4.75s-4.59 7.1-4.49 11.38c.19 8.49 7.4 15.4 16.06 15.4h4.86v35.94h-35.94v-5.16c0-4.27-1.69-8.28-4.75-11.27s-7.1-4.58-11.38-4.49c-8.49.19-15.4 7.4-15.4 16.06v4.8l-35.82.05zm68.34-1h33.94v-33.94h-3.86c-9.2 0-16.86-7.35-17.06-16.38-.1-4.55 1.59-8.85 4.77-12.1 3.18-3.25 7.44-5.05 11.98-5.05h4.16V170.3h-34.94v-5.16c0-7.57-6.22-15.67-15.48-15.67-9.86 0-15.96 8.29-15.96 15.97v4.86h-34.9v34.94l-4.99-.04c-4.3 0-8.32 1.68-11.32 4.74-3.01 3.06-4.69 7.19-4.61 11.33.18 9.57 8.26 15.49 15.64 15.49h5.28v34.93l33.81-.06v-3.8c0-9.2 7.35-16.86 16.38-17.06 4.55-.11 8.85 1.59 12.1 4.77 3.26 3.18 5.05 7.44 5.05 11.98v4.19zM107.05 128.85l-11.9-11.89.71-.71 11.19 11.19 33.23-33.24.71.71z"/></svg>