<svg xmlns="http://www.w3.org/2000/svg" width="192" height="192" viewBox="-283 465 192 192"><path fill="#212121" d="M-283 465h192v192h-192z"/><path fill="#B2FF59" d="M-248.2 567.91h-22.97v-21.65h-1.8c-5.43 0-9.93-4.42-10.03-9.85-.05-2.66.97-5.2 2.87-7.13 1.93-1.96 4.6-3.09 7.34-3.09h1.62V504.5h21.69v-1.62c0-2.74 1.13-5.41 3.09-7.34 1.94-1.9 4.45-2.91 7.13-2.87 5.43.1 9.85 4.6 9.85 10.03v1.8h21.68v22.96h-3.8c-2.37 0-4.6.94-6.26 2.64a8.728 8.728 0 0 0-2.5 6.32c.11 4.72 4.12 8.56 8.94 8.56h3.62v22.91h-22.96v-3.74c0-2.37-.94-4.6-2.64-6.26a8.753 8.753 0 0 0-6.32-2.5c-4.72.11-8.56 4.12-8.56 8.94v3.58h.01zm-20.97-2h18.96v-1.58c0-5.9 4.72-10.81 10.51-10.94 2.92-.06 5.68 1.02 7.77 3.06a10.66 10.66 0 0 1 3.24 7.69v1.74h18.96v-18.9h-1.62c-5.9 0-10.81-4.72-10.94-10.51-.07-2.92 1.02-5.68 3.06-7.77a10.66 10.66 0 0 1 7.69-3.24h1.8V506.5h-21.67v-3.8c0-4.35-3.54-7.95-7.88-8.03-2.1-.03-4.14.78-5.69 2.3-1.58 1.56-2.49 3.71-2.49 5.91v3.62h-21.7v21.68h-3.61c-2.2 0-4.36.91-5.91 2.49-1.52 1.55-2.34 3.57-2.3 5.69.08 4.35 3.68 7.88 8.03 7.88h3.8v21.67h-.01z"/><path fill="#00E676" d="M-207.73 629.33h-22.96v-3.8c0-2.38-.94-4.6-2.64-6.26-1.7-1.66-3.94-2.56-6.32-2.5-4.72.11-8.56 4.12-8.56 8.94v3.58h-22.96v-21.65h-1.8c-5.43 0-9.93-4.42-10.03-9.85-.05-2.66.97-5.2 2.87-7.13 1.93-1.96 4.6-3.09 7.34-3.09h1.62v-21.68h21.01v-1.62c0-5.23 4.16-10.88 10.88-10.88 6.33 0 10.59 5.53 10.59 10.7v1.8h20.96v22.96h-3.8c-2.37 0-4.6.94-6.26 2.64a8.728 8.728 0 0 0-2.5 6.32c.11 4.8 4.03 8.56 8.94 8.56h3.62v22.96zm-20.96-2h18.96v-18.96h-1.62c-6 0-10.8-4.62-10.94-10.51-.07-2.92 1.02-5.68 3.06-7.77a10.66 10.66 0 0 1 7.69-3.24h1.8v-18.96h-20.95v-3.8c0-4.2-3.45-8.7-8.59-8.7-5.48 0-8.88 4.61-8.88 8.88v3.62h-21.01v21.68h-3.61c-2.2 0-4.36.91-5.91 2.49-1.52 1.55-2.34 3.57-2.3 5.69.08 4.35 3.68 7.88 8.03 7.88h3.8v21.65h18.96v-1.58c0-5.9 4.72-10.81 10.51-10.94 2.92-.06 5.68 1.02 7.77 3.06s3.24 4.77 3.24 7.69l-.01 1.82z"/><path fill="#FFF" d="M-209.73 629.33v-20.96h-1.87c-5.78 0-10.58-4.74-10.68-10.57-.05-2.83 1.09-5.64 3.14-7.73 2.05-2.09 4.79-3.24 7.72-3.24l1.69.01v-20.95h20.94v-1.62c0-5.23 4.16-10.88 10.88-10.88 6.33 0 10.59 5.53 10.59 10.7v1.8h20.96v22.96h-3.8c-2.38 0-4.6.94-6.26 2.64a8.728 8.728 0 0 0-2.5 6.32c.11 4.72 4.12 8.56 8.94 8.56h3.62v22.96h-22.96v-3.8c0-2.38-.94-4.6-2.64-6.26-1.7-1.66-3.95-2.57-6.32-2.5-4.72.11-8.56 4.12-8.56 8.94v3.58l-22.89.04zm42.41-2h18.96v-18.96h-1.62c-5.9 0-10.81-4.72-10.94-10.51-.07-2.92 1.02-5.68 3.06-7.77a10.66 10.66 0 0 1 7.69-3.24h1.8v-18.96h-20.96v-3.8c0-4.2-3.45-8.7-8.59-8.7-5.48 0-8.88 4.61-8.88 8.88v3.62h-20.94v20.97l-3.7-.03c-2.38 0-4.62.94-6.29 2.64s-2.61 4-2.57 6.29c.08 4.14 3.42 8.61 8.68 8.61h3.87v20.96l18.89-.03v-1.58c0-5.9 4.71-10.81 10.51-10.94 2.91-.06 5.68 1.02 7.77 3.06a10.66 10.66 0 0 1 3.24 7.69v1.8h.02zm-79.13-84.03l-7.63-7.63 1.41-1.41 6.22 6.21 19.44-19.44 1.42 1.41z"/></svg>