<svg xmlns="http://www.w3.org/2000/svg" xmlns:xlink="http://www.w3.org/1999/xlink" width="320" height="320" viewBox="0 0 320 320"><path fill="#212121" d="M0 0h320v320H0z"/><path fill="#FFF" d="M57.552 56.517l206.791 206.791-.707.707L56.845 57.224z"/><path fill="#FFF" d="M61.05 85.89l-4.44-29.61 29.61 4.44-.15.99-28.27-4.24 4.24 28.27zm203.54 178.37l-29.61-4.44.15-.99 28.27 4.24-4.24-28.27.99-.15z"/><path fill="#00E676" d="M218.8 157.81c-29.5 0-53.5-24-53.5-53.5s24-53.5 53.5-53.5 53.5 24 53.5 53.5-24 53.5-53.5 53.5zm0-106c-28.95 0-52.5 23.55-52.5 52.5s23.55 52.5 52.5 52.5 52.5-23.55 52.5-52.5-23.55-52.5-52.5-52.5z"/><path fill="#FFF" d="M234.985 122.505l2.988 3.984-.8.6-2.988-3.984zm-15.955 3.265h1v5.89h-1zm-14.966-3.276l.8.6-2.987 3.984-.8-.6z"/><path fill="#FFF" d="M219.32 126.28c-15.1 0-28.2-8.13-35.02-21.75a.505.505 0 0 1 .22-.67c.25-.12.55-.02.67.22 6.65 13.27 19.41 21.2 34.12 21.2 14.72 0 27.48-7.92 34.12-21.2.12-.25.42-.35.67-.22.25.12.35.42.22.67-6.8 13.62-19.89 21.75-35 21.75z"/><path fill="#00E676" d="M253.89 104.81c-.18 0-.36-.1-.45-.28-6.65-13.27-19.41-21.2-34.12-21.2s-27.47 7.92-34.12 21.2c-.12.25-.42.35-.67.22a.488.488 0 0 1-.22-.67c6.82-13.62 19.91-21.75 35.02-21.75 15.1 0 28.2 8.13 35.02 21.75.12.25.02.55-.22.67a.45.45 0 0 1-.24.06z"/><path fill="#00E676" d="M237.164 81.524l.8.6-2.987 3.984-.8-.6zM219.03 76.96h1v5.89h-1zm-17.153 4.576l2.987 3.984-.8.6-2.987-3.985zM218.8 115.21c-6.01 0-10.9-4.89-10.9-10.9s4.89-10.9 10.9-10.9 10.9 4.89 10.9 10.9-4.89 10.9-10.9 10.9zm0-20.79c-5.46 0-9.9 4.44-9.9 9.9s4.44 9.9 9.9 9.9 9.9-4.44 9.9-9.9-4.44-9.9-9.9-9.9z"/><circle fill="#00E676" cx="218.8" cy="104.31" r="4.79"/><path fill="#B2FF59" d="M120.97 250.83h-7.56v-66.11h7.56v26.67h10.43v6.51h-10.43v32.93zm-6.56-1h5.56V216.9h10.43v-4.51h-10.43v-26.67h-5.56v64.11zm-40.26-11.46l-4.68-5.81.57-.27c14.46-6.95 24.25-19.97 25.67-34.06H72.59v-6.59h31.26l-.01.51c-.36 19.87-10.5 35.79-29.32 46.03l-.37.19zm-3.11-5.45l3.37 4.18c18.09-9.97 27.91-25.33 28.42-44.46H73.59v4.59H96.8l-.05.54c-1.23 14.47-11.06 27.89-25.71 35.15z"/><defs><path id="a" d="M101.2 269.19c-29.5 0-53.5-24-53.5-53.5s24-53.5 53.5-53.5 53.5 24 53.5 53.5-24 53.5-53.5 53.5zm0-106c-28.95 0-52.5 23.55-52.5 52.5s23.55 52.5 52.5 52.5 52.5-23.55 52.5-52.5-23.55-52.5-52.5-52.5z"/></defs><use xlink:href="#a" overflow="visible" fill="#FFF"/></svg>