<svg xmlns="http://www.w3.org/2000/svg" xmlns:xlink="http://www.w3.org/1999/xlink" width="192" height="192" viewBox="0 0 192 192"><path fill="#212121" d="M0 0h192v192H0z"/><path fill="#FFF" d="M35.026 33.412l124.075 124.075-1.414 1.414L33.612 34.827z"/><path fill="#FFF" d="M35.94 51.64l-2.81-18.71 18.7 2.81-.29 1.98-16.03-2.41 2.4 16.03zm123.64 107.75l-18.7-2.81.3-1.98 16.03 2.41-2.41-16.03 1.98-.3z"/><path fill="#00E676" d="M131.28 95.39c-18.09 0-32.8-14.71-32.8-32.8s14.71-32.8 32.8-32.8 32.8 14.71 32.8 32.8-14.71 32.8-32.8 32.8zm0-63.6c-16.98 0-30.8 13.82-30.8 30.8s13.82 30.8 30.8 30.8 30.8-13.82 30.8-30.8c0-16.99-13.81-30.8-30.8-30.8z"/><path fill="#FFF" d="M141.546 73.08l1.795 2.392-1.6 1.2-1.794-2.391zm-10.826 2.38h2V79h-2zm-8.841-2.376l1.6 1.2-1.795 2.392-1.6-1.2z"/><path fill="#FFF" d="M131.59 76.47c-9.33 0-17.42-5.02-21.64-13.43a.993.993 0 0 1 .45-1.34.99.99 0 0 1 1.34.45c3.87 7.72 11.29 12.33 19.85 12.33s15.98-4.61 19.85-12.33c.25-.49.84-.69 1.34-.45.49.25.69.85.45 1.34-4.22 8.41-12.3 13.43-21.64 13.43z"/><path fill="#00E676" d="M152.34 63.59c-.37 0-.72-.2-.9-.55-3.87-7.72-11.29-12.33-19.85-12.33s-15.98 4.61-19.85 12.33c-.25.49-.85.69-1.34.45s-.69-.85-.45-1.34c4.21-8.41 12.3-13.43 21.64-13.43s17.42 5.02 21.64 13.44c.25.49.05 1.09-.45 1.34-.14.05-.29.09-.44.09z"/><path fill="#00E676" d="M141.734 48.512l1.6 1.2-1.794 2.392-1.6-1.2zM130.72 46.18h2v3.54h-2zm-9.034 2.327l1.794 2.392-1.6 1.2-1.794-2.392zm9.594 21.323c-3.99 0-7.24-3.25-7.24-7.24s3.25-7.24 7.24-7.24 7.24 3.25 7.24 7.24-3.25 7.24-7.24 7.24zm0-12.48c-2.89 0-5.24 2.35-5.24 5.24s2.35 5.24 5.24 5.24 5.24-2.35 5.24-5.24-2.35-5.24-5.24-5.24z"/><circle fill="#00E676" cx="131.28" cy="62.59" r="2.87"/><path fill="#B2FF59" d="M73.28 151.2h-5.93v-41.06h5.93v16h6.26v5.31h-6.26v19.75zm-3.94-2h1.93v-19.75h6.26v-1.31h-6.26v-16h-1.93v37.06zm-25.03-5.28l-3.73-4.63 1.14-.55c8.19-3.94 13.82-11.19 14.91-19.1H42.85v-5.35h20.16l-.01 1.02c-.22 12.19-6.43 21.95-17.95 28.21l-.74.4zm-.6-3.94l1.11 1.38c10.07-5.73 15.63-14.37 16.15-25.07H44.85v1.35h13.99l-.09 1.08c-.74 8.67-6.46 16.72-15.04 21.26z"/><defs><path id="a" d="M60.72 162.21c-18.09 0-32.8-14.71-32.8-32.8s14.71-32.8 32.8-32.8 32.8 14.71 32.8 32.8-14.72 32.8-32.8 32.8zm0-63.6c-16.98 0-30.8 13.82-30.8 30.8s13.82 30.8 30.8 30.8 30.8-13.82 30.8-30.8-13.82-30.8-30.8-30.8z"/></defs><use xlink:href="#a" overflow="visible" fill="#FFF"/></svg>