<svg xmlns="http://www.w3.org/2000/svg" width="192" height="192" viewBox="0 0 192 192"><path fill="#212121" d="M0-.05h192v192H0z"/><path fill="#FFF" d="M163.54 130.25H61.64V28.36h101.89v101.89zm-99.9-2h97.89V30.36H63.64v97.89z"/><path fill="#FFF" d="M62.64 94.95h99.89v2H62.64zm0-33.3h99.89v2H62.64z"/><path fill="#FFF" d="M95 29.36h2v99.89h-2zm33.36 0h2v99.89h-2z"/><path fill="#00E676" d="M129.36 130.25H61.64v-67.6h2v65.6h65.72z"/><path fill="#00E676" d="M62.64 94.95h66.71v2H62.64z"/><path fill="#00E676" d="M95 62.65h2v66.6h-2z"/><path fill="#B2FF59" d="M130.36 163.55H28.46V61.65h101.89v101.9zm-99.9-2h97.89v-97.9H30.46v97.9z"/><path fill="#FFF" d="M75 120.05l-5.32-5.32 1.41-1.41 3.91 3.9 12.72-12.72 1.42 1.41z"/><path fill="#00E676" d="M128.33 62.38h2v67.14h-2z"/><path fill="#00E676" d="M62.35 61.66h66.98v2H62.35z"/></svg>