<svg xmlns="http://www.w3.org/2000/svg" width="192" height="192" viewBox="-283 465 192 192"><path fill="#212121" d="M-283 464.95h192v192h-192z"/><path fill="#FFF" d="M-147.92 595.25h-101.9V493.36h101.89l.01 101.89zm-99.9-2h97.89v-97.89h-97.89v97.89z"/><path fill="#FFF" d="M-248.82 559.95h99.89v2h-99.89zm0-33.3h99.89v2h-99.89z"/><path fill="#FFF" d="M-216.46 494.36h2v99.89h-2zm33.36 0h2v99.89h-2z"/><path fill="#00E676" d="M-182.1 595.25h-67.72v-67.6h2v65.6h65.72z"/><path fill="#00E676" d="M-248.82 559.95h66.71v2h-66.71z"/><path fill="#00E676" d="M-216.46 527.65h2v66.6h-2z"/><path fill="#B2FF59" d="M-181.1 628.55H-283v-101.9h101.89l.01 101.9zm-99.9-2h97.89v-97.9H-281v97.9z"/><path fill="#FFF" d="M-236.46 585.05l-5.32-5.32 1.41-1.41 3.91 3.9 12.72-12.72 1.42 1.41z"/><path fill="#00E676" d="M-183.13 527.38h2v67.14h-2z"/><path fill="#00E676" d="M-249.11 526.66h66.98v2h-66.98z"/></svg>