<svg xmlns="http://www.w3.org/2000/svg" width="24" height="24" viewBox="0 0 24 24"><path fill="#231F20" d="M23 9.39c0-.1-.04-.19-.11-.26l-.07-.07a.363.363 0 0 0-.26-.11c-3.33-.06-5.68.76-6.99 2.46-1.5 1.95-1.14 4.41-.96 5.24l-.94.94-1.07-1.07c.21-.85.97-4.63-1.28-7.56-1.84-2.39-5.14-3.54-9.84-3.45-.1 0-.19.04-.26.11l-.1.1c-.07.08-.11.17-.11.27-.1 4.69 1.06 8 3.45 9.83C6.1 17.08 8 17.39 9.5 17.39c1.27 0 2.26-.23 2.58-.31l1.3 1.3c.07.07.17.11.27.11.05 0 .11-.01.15-.04.06-.02.11-.04.16-.09l1.09-1.09c.18.05.91.23 1.87.23 1.08 0 2.44-.23 3.61-1.13 1.71-1.29 2.54-3.65 2.47-6.98zM4.92 15.21c-2.14-1.64-3.2-4.65-3.15-8.94 4.29-.06 7.3 1.01 8.94 3.15 1.75 2.27 1.47 5.21 1.24 6.46l-1.89-1.89c0-.02.01-.03.01-.05v-3.81a.38.38 0 1 0-.76 0v3.1L6.07 9.99a.38.38 0 0 0-.54 0 .38.38 0 0 0 0 .54l3.02 3.02H6.26a.38.38 0 1 0 0 .76h3.05l2.13 2.13c-1.2.23-4.2.55-6.52-1.23zm15.15.56c-1.52 1.17-3.49 1.01-4.38.86l1.94-1.94h1.56a.38.38 0 1 0 0-.76h-.8l1.48-1.48a.38.38 0 0 0 0-.54.38.38 0 0 0-.54 0l-1.67 1.67v-.79a.38.38 0 1 0-.76 0v1.54l-1.66 1.66c-.13-.97-.17-2.72.9-4.11 1.1-1.44 3.12-2.17 6-2.17h.07c.04 2.91-.69 4.95-2.14 6.06z"/></svg>