<svg xmlns="http://www.w3.org/2000/svg" width="48" height="48" viewBox="0 0 48 48"><path fill="#231F20" d="M43.99 16.23v-.07c0-.03-.02-.05-.03-.08a.612.612 0 0 0-.05-.12l-.03-.06s0-.01-.01-.01l-7.7-11.57c-.01-.02-.03-.03-.05-.05a.27.27 0 0 0-.07-.08c-.02-.02-.04-.03-.06-.05a.405.405 0 0 0-.09-.05c-.03-.02-.06-.03-.09-.04-.01 0-.02-.01-.04-.02h-.03c-.04-.01-.07-.01-.11-.01a.142.142 0 0 0-.06-.02H12.43c-.02 0-.04.01-.06.01-.04 0-.08 0-.11.01h-.03c-.01 0-.02.01-.04.02-.03.01-.06.03-.09.04-.03.02-.06.03-.09.06-.02.01-.04.03-.06.05-.03.02-.05.05-.07.08-.01.02-.04.03-.05.05L4.12 15.89s0 .01-.01.01l-.03.06c-.01.04-.03.08-.04.12-.01.03-.02.05-.03.08v.07c0 .02-.01.04-.01.06 0 .02.01.04.01.07v.08c0 .02.02.04.03.07.01.04.03.08.05.12.01.02.02.05.04.07 0 0 0 .01.01.01L23.41 43.7c.02.03.06.06.09.09l.06.06.02.02c.02.02.05.02.07.03l.06.03c.02.01.04.03.07.03h.01c.06.02.13.03.19.03h.04c.06 0 .13-.01.19-.03h.01c.02-.01.04-.02.07-.03l.06-.03c.02-.01.05-.02.07-.03l.02-.02.06-.06.09-.09 19.28-26.99s0-.01.01-.01c.02-.02.02-.05.04-.07.02-.04.04-.08.05-.12.01-.02.02-.04.03-.07.01-.03 0-.05 0-.08 0-.02.01-.04.01-.07-.01-.02-.02-.04-.02-.06zm-9.4-10.78l-2.87 9.56-6.38-9.56h9.25zm-4.23 10.12H17.64L24 6.03l6.36 9.54zM22.65 5.45l-6.38 9.56-2.87-9.56h9.25zm-10.47.95l2.75 9.16H6.07l6.11-9.16zM6.13 17.01h9.24l6.69 22.3-15.93-22.3zM24 40.76l-7.12-23.75h14.25L24 40.76zm1.94-1.45l6.69-22.3h9.24l-15.93 22.3zm7.13-23.74l2.75-9.16 6.11 9.16h-8.86z"/><path fill="none" d="M0 0h48v48H0z"/></svg>