<svg xmlns="http://www.w3.org/2000/svg" width="24" height="24" viewBox="0 0 24 24"><path d="M22 14.48c.05 1.81-.95 3.58-2.9 4.82-1.67 1.07-3.52 1.7-5.43 2.15-1.19.28-2.41.5-3.62.54-2.33.08-4.13-.94-5.37-2.93-1.15-1.85-1.78-3.89-2.27-5.98-.32-1.28-.5-2.58-.36-3.92.2-1.88 1.13-3.29 2.67-4.34C6.24 3.8 7.96 3.22 9.7 2.71c1.33-.39 2.69-.68 4.08-.71 2.01-.05 3.74.59 5.03 2.22.98 1.24 1.59 2.67 2.08 4.16.59 1.81 1.09 3.64 1.11 6.1zm-7.78-6.84c-.11-.33-.21-.6-.3-.88-.07-.19-.12-.38-.2-.56a1.032 1.032 0 0 0-1.93.71c.13.47.3.92.46 1.41-.91.3-1.78.59-2.66.88-.16-.48-.3-.91-.46-1.33-.23-.59-.79-.85-1.33-.65-.56.2-.81.73-.63 1.32.13.43.28.85.43 1.32-.42.14-.82.27-1.22.41-.61.21-.91.75-.72 1.31.19.58.75.85 1.38.65l1.23-.4c.29.87.57 1.71.85 2.56-.45.15-.86.29-1.25.43-.58.21-.87.74-.7 1.29.18.57.74.85 1.34.67.42-.13.83-.27 1.24-.4.03.03.05.05.06.07.13.38.26.75.39 1.13.23.67.76.97 1.35.77.58-.19.82-.77.61-1.44-.13-.4-.26-.8-.4-1.22.9-.3 1.77-.59 2.66-.89.16.46.29.87.44 1.28.22.61.77.89 1.32.71.57-.19.83-.76.62-1.4-.13-.41-.27-.82-.41-1.25.22-.08.41-.14.6-.2l.6-.21c.63-.23.94-.78.74-1.34-.21-.58-.76-.83-1.4-.62-.39.12-.78.25-1.21.39-.29-.87-.57-1.7-.86-2.56.47-.16.9-.29 1.32-.46.55-.22.81-.77.62-1.3-.2-.56-.73-.83-1.32-.65-.4.16-.81.3-1.26.45z"/><path d="M12.9 10.27c.29.87.57 1.7.87 2.57-.9.3-1.76.59-2.67.9-.29-.86-.57-1.7-.87-2.57.9-.3 1.76-.59 2.67-.9z"/><path fill="none" d="M0 0h24v24H0z"/></svg>