<svg id="Layer_1" xmlns="http://www.w3.org/2000/svg" viewBox="0 0 24 24"><style>.st0{fill:none}.st1{fill:#010101}</style><g id="XMLID_1630_"><g id="XMLID_1634_"><path id="XMLID_1635_" class="st0" d="M0 0h24v24H0z"/></g><path id="XMLID_1631_" class="st1" d="M1 18.9c1.94 1.23 4.17 2.22 7.25 2.09 7.46-.34 12.46-5.69 12.57-13.51C21.63 6.8 22.57 6 23 5.1c-.69.35-1.51.57-2.43.7.84-.62 1.53-1.38 1.89-2.49-.87.46-1.77.88-2.88 1.09-2.62-3.18-8.9-.61-7.8 4.12-4.41-.27-7.1-2.27-9.34-4.72C1.16 5.87 2.27 9 3.78 9.86c-.78-.04-1.37-.28-1.93-.54.08 2.6 1.51 3.85 3.52 4.52-.61.13-1.29.16-1.94.05.62 1.82 1.94 2.96 4.17 3.18-1.51 1.29-4.33 2.2-6.6 1.83z"/></g></svg>